<svg width="207" height="154" viewBox="0 0 207 154" fill="none" xmlns="http://www.w3.org/2000/svg">
<path d="M206.385 134.756H0.617188V134.859H206.385V134.756Z" fill="#EBEBEB"/>
<path d="M185.765 141.379H179.633V141.482H185.765V141.379Z" fill="#EBEBEB"/>
<path d="M136.925 142.496H133.348V142.599H136.925V142.496Z" fill="#EBEBEB"/>
<path d="M177.895 137.559H163.824V137.662H177.895V137.559Z" fill="#EBEBEB"/>
<path d="M45.7322 139.684H27.957V139.787H45.7322V139.684Z" fill="#EBEBEB"/>
<path d="M55.809 139.684H49.3984V139.787H55.809V139.684Z" fill="#EBEBEB"/>
<path d="M105.457 138.301H66.9062V138.404H105.457V138.301Z" fill="#EBEBEB"/>
<path d="M98.1568 116.402H18.689C18.0662 116.401 17.469 116.153 17.0286 115.713C16.5882 115.272 16.3405 114.675 16.3398 114.052V2.34833C16.3407 1.72564 16.5885 1.12872 17.0289 0.688489C17.4693 0.248259 18.0663 0.000659008 18.689 0H98.1568C98.7793 0.000878682 99.3761 0.248574 99.8163 0.68878C100.257 1.12899 100.504 1.72578 100.505 2.34833V114.051C100.505 114.674 100.257 115.271 99.8172 115.712C99.3769 116.153 98.7798 116.401 98.1568 116.402ZM18.6898 0.102968C18.0957 0.104721 17.5265 0.341498 17.1064 0.761583C16.6863 1.18167 16.4495 1.75092 16.4478 2.34501V114.051C16.4495 114.645 16.6863 115.214 17.1064 115.634C17.5265 116.054 18.0957 116.291 18.6898 116.293H98.1576C98.7517 116.291 99.321 116.054 99.741 115.634C100.161 115.214 100.398 114.645 100.4 114.051V2.34833C100.398 1.75424 100.161 1.18499 99.741 0.764902C99.321 0.344818 98.7517 0.108043 98.1576 0.106291L18.6898 0.102968Z" fill="#EBEBEB"/>
<path d="M187.172 116.402H107.704C107.081 116.401 106.484 116.153 106.044 115.713C105.604 115.272 105.356 114.675 105.355 114.052V2.34833C105.356 1.72571 105.604 1.12879 106.044 0.688539C106.484 0.248286 107.081 0.000659431 107.704 0H187.172C187.794 0.000659008 188.391 0.248259 188.832 0.688489C189.272 1.12872 189.52 1.72564 189.521 2.34833V114.051C189.521 114.674 189.273 115.271 188.833 115.712C188.392 116.153 187.795 116.401 187.172 116.402ZM107.704 0.102968C107.11 0.104721 106.54 0.341498 106.12 0.761583C105.7 1.18167 105.464 1.75092 105.462 2.34501V114.051C105.464 114.645 105.7 115.214 106.12 115.634C106.54 116.054 107.11 116.291 107.704 116.293H187.172C187.766 116.292 188.337 116.056 188.758 115.636C189.179 115.215 189.416 114.646 189.418 114.051V2.34833C189.416 1.75352 189.179 1.18364 188.758 0.763442C188.337 0.343239 187.766 0.106947 187.172 0.106291L107.704 0.102968Z" fill="#EBEBEB"/>
<path d="M88.8833 134.754H96.5469V82.1308H88.8833V134.754Z" fill="#E6E6E6"/>
<path d="M91.5807 134.756H88.8828V124.758H94.409L91.5807 134.756Z" fill="#F0F0F0"/>
<path d="M169.922 134.754H177.586V82.1308H169.922V134.754Z" fill="#E6E6E6"/>
<path d="M88.8827 132.025H172.277V82.1317H88.8827V132.025Z" fill="#F0F0F0"/>
<path d="M169.586 134.756H172.283V124.758H166.754L169.586 134.756Z" fill="#F0F0F0"/>
<path d="M144.785 86.2598V127.533H169.507V86.2598H144.785Z" fill="#E6E6E6"/>
<path d="M154.702 87.7124H159.593C161.663 87.7335 163.666 86.9807 165.21 85.6016H149.086C150.629 86.9805 152.632 87.7333 154.702 87.7124Z" fill="#F0F0F0"/>
<path d="M118.219 86.2598V127.533H142.94V86.2598H118.219Z" fill="#E6E6E6"/>
<path d="M127.886 87.7124H132.777C134.847 87.7333 136.85 86.9805 138.393 85.6016H122.27C123.813 86.9807 125.816 87.7335 127.886 87.7124Z" fill="#F0F0F0"/>
<path d="M91.6562 86.2598V127.533H116.378V86.2598H91.6562Z" fill="#E6E6E6"/>
<path d="M101.324 87.7124H106.215C108.285 87.7335 110.288 86.9807 111.831 85.6016H95.707C97.2507 86.9807 99.2539 87.7335 101.324 87.7124Z" fill="#F0F0F0"/>
<path d="M29.4177 134.754H81.707L81.707 17.2113H29.4177L29.4177 134.754Z" fill="#F0F0F0"/>
<path d="M29.4198 134.754H80.6055L80.6055 17.2113H29.4198L29.4198 134.754Z" fill="#F5F5F5"/>
<path d="M77.4844 132.087V19.8789L32.5365 19.8789L32.5365 132.087H77.4844Z" fill="#F0F0F0"/>
<path d="M73.0665 40.7481C73.0665 39.1389 72.7496 37.5454 72.1338 36.0587C71.5179 34.572 70.6153 33.2211 69.4774 32.0833C68.3395 30.9454 66.9887 30.0427 65.502 29.4269C64.0152 28.8111 62.4218 28.4941 60.8126 28.4941H49.2071C45.9572 28.4941 42.8403 29.7852 40.5422 32.0833C38.2442 34.3813 36.9531 37.4982 36.9531 40.7481H73.0665Z" fill="#FAFAFA"/>
<path d="M73.0703 125.113V98.3066H36.9569V125.113H73.0703Z" fill="#F5F5F5"/>
<path d="M73.0699 48.3066H57.1406V94.8489H73.0699V48.3066Z" fill="#F5F5F5"/>
<path d="M52.8824 48.3066H36.9531V94.8489H52.8824V48.3066Z" fill="#F5F5F5"/>
<path d="M42.7319 71.3663H36.2076C35.9393 71.3656 35.6822 71.2588 35.4925 71.0691C35.3028 70.8794 35.196 70.6223 35.1953 70.354C35.1962 70.0858 35.3031 69.8289 35.4928 69.6392C35.6824 69.4496 35.9394 69.3427 36.2076 69.3418H42.7319C43.0001 69.3427 43.257 69.4496 43.4467 69.6392C43.6363 69.8289 43.7432 70.0858 43.7441 70.354C43.7435 70.6223 43.6366 70.8794 43.4469 71.0691C43.2572 71.2588 43.0001 71.3656 42.7319 71.3663Z" fill="#E0E0E0"/>
<path d="M33.3477 132.087L33.3477 19.8789H32.5389L32.5389 132.087H33.3477Z" fill="#F0F0F0"/>
<path d="M114.782 69.2324H170.234V17.2138L114.782 17.2138V69.2324Z" fill="#E6E6E6"/>
<path d="M113.388 69.2324H168.84V17.2138L113.388 17.2138V69.2324Z" fill="#F5F5F5"/>
<path d="M110.147 72.2422L170.234 72.2422V69.2312L110.147 69.2312V72.2422Z" fill="#E6E6E6"/>
<path d="M108.574 72.2422H165.566V69.2312H108.574V72.2422Z" fill="#F5F5F5"/>
<path d="M166.328 66.5249V19.918L115.894 19.918V66.5249H166.328Z" fill="white"/>
<path d="M142.508 66.5249V19.918H139.712V66.5249H142.508Z" fill="#F5F5F5"/>
<path d="M116.953 66.5249V19.918H115.896V66.5249H116.953Z" fill="#E6E6E6"/>
<path d="M143.566 66.5249V19.918H142.509V66.5249H143.566Z" fill="#E6E6E6"/>
<path d="M122.234 70.6095C121.214 60.0429 120.504 42.8963 121.055 37.1617C121.065 37.0631 121.095 36.9677 121.145 36.8818C121.194 36.7959 121.261 36.7215 121.341 36.6634C121.448 36.5854 121.574 36.5389 121.706 36.5292C121.838 36.5196 121.97 36.5471 122.086 36.6088C122.203 36.6704 122.3 36.7636 122.367 36.8778C122.433 36.992 122.466 37.1226 122.462 37.2547C122.365 40.0962 122.253 47.1985 122.858 59.4509C123.16 65.55 123.594 69.7268 123.296 70.6079L122.234 70.6095Z" fill="#E6E6E6"/>
<path d="M118.434 46.2535C115.527 43.0292 109.599 40.7365 103.556 40.7481C101.183 40.7531 110.774 44.4989 114.766 48.6367C117.956 52.0729 120.582 55.9924 122.546 60.2497C121.775 53.9346 121.338 49.4763 118.434 46.2535Z" fill="#E6E6E6"/>
<path d="M124.19 47.2351C126.598 43.8771 132.167 41.2946 138.19 41.0023C140.554 40.8877 131.558 45.1019 128.201 49.4216C125.523 53.032 123.487 57.077 122.183 61.3791C122.007 55.0574 121.778 50.5941 124.19 47.2351Z" fill="#E6E6E6"/>
<path d="M118.304 34.4782C115.846 31.7479 110.823 29.8065 105.706 29.8164C103.697 29.8164 111.818 32.9935 115.195 36.4936C117.897 39.4031 120.12 42.722 121.784 46.327C121.134 40.9843 120.761 37.2085 118.304 34.4782Z" fill="#E6E6E6"/>
<path d="M123.179 38.5142C125.221 35.6702 129.935 33.4838 135.034 33.2363C137.036 33.1392 129.419 36.7073 126.576 40.3652C124.307 43.4239 122.583 46.8511 121.48 50.4959C121.332 45.1382 121.137 41.3566 123.179 38.5142Z" fill="#E6E6E6"/>
<path d="M122.648 82.1338C121.115 82.1338 119.641 81.5478 118.527 80.4958C117.412 79.4438 116.743 78.0055 116.655 76.4756L116.125 67.2891H129.17L128.641 76.4756C128.553 78.0055 127.883 79.4438 126.769 80.4958C125.654 81.5478 124.18 82.1338 122.648 82.1338Z" fill="#E6E6E6"/>
<path d="M130.013 69.3764H115.281L114.859 65.5566H130.438L130.013 69.3764Z" fill="#E6E6E6"/>
<path d="M103.499 153.344C147.568 153.344 183.292 151.257 183.292 148.684C183.292 146.11 147.568 144.023 103.499 144.023C59.4313 144.023 23.707 146.11 23.707 148.684C23.707 151.257 59.4313 153.344 103.499 153.344Z" fill="#F5F5F5"/>
<path d="M105.113 144.228L101.677 144.615L100.41 136.823L103.846 136.436L105.113 144.228Z" fill="#FFC3BD"/>
<path d="M120.497 144.977H117.065L116.211 137.031H119.642L120.497 144.977Z" fill="#FFC3BD"/>
<path d="M116.783 144.576H120.966C121.034 144.576 121.1 144.599 121.153 144.642C121.206 144.685 121.243 144.744 121.258 144.81L121.936 147.86C121.952 147.935 121.951 148.012 121.933 148.085C121.915 148.159 121.88 148.228 121.832 148.287C121.784 148.345 121.723 148.392 121.654 148.424C121.585 148.456 121.509 148.472 121.433 148.471C120.087 148.447 119.108 148.369 117.411 148.369C116.368 148.369 113.223 148.477 111.783 148.477C110.371 148.477 110.154 147.052 110.744 146.924C113.388 146.342 115.38 145.548 116.225 144.787C116.378 144.65 116.577 144.575 116.783 144.576Z" fill="#263238"/>
<path d="M101.621 144.023L105.344 143.602C105.412 143.594 105.48 143.609 105.538 143.645C105.595 143.682 105.639 143.737 105.661 143.801L106.678 146.755C106.704 146.826 106.713 146.902 106.705 146.978C106.696 147.053 106.671 147.126 106.63 147.19C106.589 147.254 106.535 147.308 106.47 147.348C106.405 147.387 106.332 147.412 106.257 147.419C104.911 147.548 102.962 147.69 101.274 147.881C99.3005 148.106 98.9717 148.634 96.6433 148.58C95.2316 148.547 94.8779 147.114 95.4699 147.002C98.167 146.478 98.6885 146.07 100.832 144.388C101.056 144.196 101.329 144.069 101.621 144.023Z" fill="#263238"/>
<path d="M104.65 44.1539C103.498 45.1055 102.363 45.9326 101.19 46.7796C100.017 47.6266 98.8183 48.413 97.5852 49.1761C96.3521 49.9392 95.0866 50.6708 93.7596 51.3351C92.4031 52.0379 90.9908 52.6272 89.5371 53.0972C89.1526 53.2201 88.7781 53.3214 88.3463 53.4293C87.9241 53.5209 87.4972 53.5893 87.0675 53.6344C86.2944 53.7175 85.567 53.7548 84.8421 53.7881C83.3972 53.8545 81.9798 53.8528 80.564 53.8429C77.7324 53.8088 74.9248 53.6726 72.1048 53.4235L72.0625 50.8493C74.8318 50.4931 77.6136 50.185 80.3663 49.8753C81.7423 49.7258 83.1149 49.5581 84.456 49.3829C85.1203 49.2924 85.7846 49.1861 86.3974 49.0723C86.6608 49.0258 86.9214 48.9645 87.178 48.8888C87.4196 48.8058 87.7161 48.7111 87.9901 48.6006C89.1669 48.1229 90.3092 47.564 91.4088 46.9282C92.5472 46.2747 93.6865 45.5731 94.8059 44.8274C95.9252 44.0817 97.0396 43.3094 98.144 42.5214C99.2484 41.7334 100.352 40.8988 101.388 40.1133L104.65 44.1539Z" fill="#FFC3BD"/>
<path d="M108.007 41.2203C107.514 44.4637 100.684 49.4253 100.684 49.4253L95.7852 43.3444C97.9313 41.0539 100.207 38.8884 102.601 36.8583C104.806 35.0563 108.543 37.6911 108.007 41.2203Z" fill="#407BFF"/>
<path d="M73.0092 51.1211L71.0611 49.7344L70.8477 54.1155C71.1421 54.1163 71.4323 54.0449 71.6929 53.9077C71.9534 53.7705 72.1764 53.5715 72.3424 53.3283L73.0092 51.1211Z" fill="#FFC3BD"/>
<path d="M69.3009 48.459L68.9023 52.7529L70.8488 54.1156L71.0622 49.7345L69.3009 48.459Z" fill="#FFC3BD"/>
<path opacity="0.2" d="M100.41 136.826L101.063 140.843L104.5 140.456L103.847 136.439L100.41 136.826Z" fill="black"/>
<path opacity="0.2" d="M119.644 137.037H116.211L116.653 141.133H120.086L119.644 137.037Z" fill="black"/>
<path d="M119.694 36.9639C119.949 37.0212 120.191 37.129 120.404 37.2811C120.617 37.4331 120.798 37.6263 120.935 37.8492C121.073 38.0721 121.164 38.3203 121.205 38.5791C121.245 38.8379 121.233 39.1021 121.169 39.3562C120.425 42.4465 119.864 45.5781 119.489 48.7346C119.164 51.3918 118.97 53.9303 118.848 56.2313C118.564 61.6246 118.682 65.7359 118.521 67.1293C115.838 66.9433 105.727 66.2399 100.215 65.8546C98.3536 51.2864 100.534 41.9894 101.759 38.212C101.947 37.6234 102.297 37.1001 102.771 36.7032C103.244 36.3063 103.821 36.052 104.433 35.9699C105.135 35.8778 105.976 35.7889 106.863 35.7366C107.173 35.7167 107.488 35.7059 107.808 35.6992C110.411 35.73 113.01 35.9108 115.592 36.2406C116.082 36.2988 116.576 36.371 117.058 36.4482C118.02 36.6093 118.936 36.7945 119.694 36.9639Z" fill="#346AE1"/>
<path d="M115.431 27.4277C114.767 29.8973 113.955 34.4511 115.591 36.2448C111.348 39.0988 108.639 43.117 107.857 42.2443C107.448 41.7876 107.27 36.5022 107.808 35.7017C110.648 35.23 110.72 33.1532 110.369 31.1736L115.431 27.4277Z" fill="#FFC3BD"/>
<path d="M115.261 35.2227C115.261 35.2227 108.346 38.2826 107.43 45.125C109.335 42.9195 113.542 40.5197 113.542 40.5197L111.686 39.9866C112.866 39.5386 114.088 39.2098 115.334 39.0051C115.128 38.0601 116.226 36.1751 116.226 36.1751L115.261 35.2227Z" fill="#407BFF"/>
<path d="M109.025 35.1113C109.025 35.1113 109.947 39.0191 107.433 45.1241C106.938 42.9933 106.258 40.9095 105.402 38.8962L107.095 39.3571C107.095 39.3571 107.012 38.5691 105.642 37.5211C106.213 36.6913 106.925 35.9682 107.747 35.3845L109.025 35.1113Z" fill="#407BFF"/>
<path opacity="0.2" d="M113.367 28.959L110.371 31.1744C110.46 31.6355 110.508 32.1034 110.515 32.5728C111.594 32.4898 113.139 31.4244 113.331 30.3158C113.425 29.8695 113.437 29.4098 113.367 28.959Z" fill="black"/>
<path d="M106.645 20.2763C104.972 20.3485 104.049 23.2333 105.747 25.609C107.445 27.9848 108.9 20.1791 106.645 20.2763Z" fill="#263238"/>
<path d="M114.899 22.8154C115.097 26.215 115.386 28.1938 113.89 30.1311C111.639 33.0449 107.288 32.0003 106.078 28.7286C104.99 25.7841 104.848 20.7196 107.988 18.9799C108.679 18.5926 109.457 18.3884 110.249 18.3867C111.041 18.385 111.821 18.5859 112.513 18.9703C113.206 19.3546 113.788 19.9097 114.206 20.5827C114.623 21.2557 114.862 22.0243 114.899 22.8154Z" fill="#FFC3BD"/>
<path d="M115.396 25.4276C114.487 24.8947 113.694 24.1863 113.061 23.3436C112.429 22.5009 111.97 21.5408 111.712 20.5192C110.716 20.755 105.749 23.0402 104.222 20.5192C102.695 17.9981 104.616 16.5192 107.474 18.0712C106.21 15.8408 107.359 14.7497 111.33 14.6533C115.301 14.557 114.767 16.8588 114.767 16.8588C114.767 16.8588 117.773 15.5501 118.836 17.8553C120.067 20.5042 117.795 25.0273 115.396 25.4276Z" fill="#263238"/>
<path d="M114.086 16.2489C114.122 16.2489 115.59 16.6018 117.28 14.9004C116.977 16.3519 114.352 17.3185 114.352 17.3185L114.086 16.2489Z" fill="#263238"/>
<path d="M116.061 21.2243C114.478 20.6771 112.56 23.0229 113.269 25.8554C113.977 28.6878 118.195 21.9617 116.061 21.2243Z" fill="#263238"/>
<path d="M116.956 25.6445C116.811 26.4887 116.338 27.2412 115.639 27.7371C114.708 28.3864 113.87 27.6441 113.812 26.5695C113.764 25.603 114.189 24.1 115.275 23.8783C115.513 23.8337 115.758 23.8495 115.989 23.924C116.219 23.9985 116.428 24.1295 116.595 24.3049C116.762 24.4804 116.882 24.6949 116.945 24.9288C117.009 25.1628 117.012 25.4088 116.956 25.6445Z" fill="#FFC3BD"/>
<path d="M105.373 104.513C106.197 94.4772 112.246 66.695 112.246 66.695L100.21 65.8555C100.21 65.8555 95.5691 93.4334 95.2136 103.9C94.8433 114.782 99.2203 138.967 99.2203 138.967L104.992 138.311C104.992 138.311 104.545 114.591 105.373 104.513Z" fill="#407BFF"/>
<path opacity="0.5" d="M105.373 104.513C106.197 94.4772 112.246 66.695 112.246 66.695L100.21 65.8555C100.21 65.8555 95.5691 93.4334 95.2136 103.9C94.8433 114.782 99.2203 138.967 99.2203 138.967L104.992 138.311C104.992 138.311 104.545 114.591 105.373 104.513Z" fill="white"/>
<path opacity="0.2" d="M107.712 76.1016C105.286 79.2039 105.243 90.0994 106.181 98.1491C107.075 92.3422 108.484 84.9676 109.719 78.8202L107.712 76.1016Z" fill="black"/>
<path d="M106.707 66.3047C106.707 66.3047 108.006 95.6795 109.455 105.628C111.041 116.521 115.069 140.331 115.069 140.331H121.353C121.353 140.331 120.32 117.906 119.49 107.203C118.546 95.0119 118.52 67.1284 118.52 67.1284L106.707 66.3047Z" fill="#407BFF"/>
<path opacity="0.5" d="M106.707 66.3047C106.707 66.3047 108.006 95.6795 109.455 105.628C111.041 116.521 115.069 140.331 115.069 140.331H121.353C121.353 140.331 120.32 117.906 119.49 107.203C118.546 95.0119 118.52 67.1284 118.52 67.1284L106.707 66.3047Z" fill="white"/>
<path d="M114.313 140.465H121.713V138.255L113.441 138.111L114.313 140.465Z" fill="#407BFF"/>
<path d="M98.9682 139.616L105.847 138.836L105.598 136.613L97.8945 137.368L98.9682 139.616Z" fill="#407BFF"/>
<path d="M109.894 24.374C109.927 24.6489 109.811 24.8888 109.628 24.9104C109.446 24.932 109.276 24.7269 109.244 24.452C109.211 24.1772 109.327 23.9372 109.509 23.9156C109.692 23.894 109.862 24.0991 109.894 24.374Z" fill="#263238"/>
<path d="M106.786 24.747C106.819 25.0219 106.703 25.2619 106.52 25.2834C106.337 25.305 106.168 25.0999 106.135 24.8251C106.101 24.5502 106.218 24.3102 106.4 24.2886C106.583 24.2671 106.752 24.4755 106.786 24.747Z" fill="#263238"/>
<path d="M107.791 24.7637C107.565 25.6428 107.218 26.4866 106.762 27.2714C106.965 27.3831 107.191 27.4488 107.423 27.4642C107.655 27.4795 107.887 27.4441 108.104 27.3603L107.791 24.7637Z" fill="#ED847E"/>
<path d="M110.735 23.2554C110.707 23.2641 110.676 23.2648 110.647 23.2573C110.617 23.2499 110.591 23.2346 110.569 23.2131C110.432 23.0621 110.261 22.9457 110.07 22.8736C109.879 22.8014 109.674 22.7755 109.471 22.7979C109.428 22.805 109.385 22.7955 109.35 22.7714C109.314 22.7473 109.289 22.7103 109.281 22.6684C109.276 22.6473 109.276 22.6257 109.28 22.6046C109.285 22.5836 109.293 22.5636 109.305 22.5459C109.317 22.5281 109.333 22.513 109.351 22.5014C109.369 22.4898 109.389 22.4819 109.41 22.4782C109.666 22.445 109.927 22.4739 110.169 22.5623C110.412 22.6507 110.63 22.7962 110.804 22.9864C110.834 23.0173 110.851 23.0585 110.851 23.1014C110.851 23.1443 110.834 23.1855 110.804 23.2164C110.785 23.235 110.761 23.2484 110.735 23.2554Z" fill="#263238"/>
<path d="M109.544 28.458C109.936 28.3756 110.302 28.2 110.612 27.9462C110.921 27.6925 111.165 27.3678 111.323 26.9998C111.331 26.9778 111.33 26.9536 111.319 26.9326C111.309 26.9116 111.291 26.8955 111.269 26.8878C111.247 26.88 111.223 26.8814 111.202 26.8915C111.181 26.9016 111.165 26.9197 111.157 26.9417C111.006 27.2802 110.777 27.5785 110.49 27.8124C110.202 28.0464 109.864 28.2095 109.501 28.2886C109.49 28.2912 109.48 28.2959 109.47 28.3026C109.461 28.3092 109.453 28.3176 109.447 28.3273C109.441 28.3371 109.437 28.3479 109.435 28.3592C109.433 28.3705 109.433 28.3821 109.436 28.3932C109.438 28.4044 109.443 28.415 109.45 28.4243C109.456 28.4337 109.465 28.4416 109.475 28.4477C109.484 28.4538 109.495 28.4579 109.506 28.4598C109.518 28.4617 109.529 28.4614 109.54 28.4588L109.544 28.458Z" fill="#263238"/>
<path d="M105.326 23.8369C105.294 23.8478 105.258 23.8478 105.226 23.8369C105.185 23.8221 105.153 23.7923 105.134 23.7537C105.115 23.7152 105.112 23.6709 105.125 23.6302C105.203 23.3839 105.339 23.16 105.522 22.9775C105.705 22.7951 105.929 22.6595 106.176 22.5822C106.217 22.5728 106.261 22.5798 106.298 22.6017C106.334 22.6237 106.361 22.6589 106.372 22.7001C106.382 22.7417 106.375 22.7853 106.353 22.8219C106.331 22.8586 106.296 22.8854 106.255 22.8969C106.062 22.9616 105.886 23.0713 105.743 23.2171C105.6 23.3629 105.493 23.5406 105.432 23.7356C105.424 23.7595 105.41 23.7811 105.391 23.7987C105.373 23.8162 105.35 23.8293 105.326 23.8369Z" fill="#263238"/>
<path d="M115.654 145.176C115.419 145.195 115.185 145.133 114.99 145.001C114.929 144.949 114.882 144.882 114.853 144.807C114.824 144.732 114.814 144.652 114.824 144.572C114.824 144.524 114.837 144.478 114.861 144.437C114.886 144.397 114.921 144.364 114.963 144.342C115.345 144.146 116.45 144.827 116.574 144.905C116.588 144.914 116.599 144.926 116.605 144.941C116.612 144.956 116.614 144.972 116.612 144.988C116.609 145.004 116.602 145.018 116.591 145.03C116.58 145.042 116.566 145.05 116.55 145.054C116.257 145.128 115.957 145.169 115.654 145.176ZM115.144 144.466C115.108 144.465 115.072 144.472 115.039 144.486C115.022 144.496 115.008 144.51 114.999 144.527C114.99 144.544 114.986 144.563 114.987 144.582C114.98 144.636 114.986 144.692 115.006 144.743C115.025 144.795 115.057 144.84 115.098 144.877C115.481 145.052 115.917 145.074 116.316 144.938C115.958 144.706 115.559 144.546 115.14 144.466H115.144Z" fill="#407BFF"/>
<path d="M116.529 145.057C116.515 145.057 116.502 145.054 116.49 145.047C116.135 144.855 115.449 144.102 115.521 143.719C115.533 143.659 115.565 143.605 115.612 143.566C115.659 143.527 115.718 143.506 115.779 143.505C115.841 143.498 115.904 143.503 115.963 143.521C116.023 143.539 116.078 143.569 116.125 143.61C116.524 143.936 116.606 144.926 116.609 144.968C116.61 144.982 116.607 144.997 116.6 145.01C116.594 145.023 116.584 145.034 116.572 145.042C116.559 145.051 116.545 145.056 116.529 145.057ZM115.836 143.666H115.799C115.694 143.68 115.685 143.728 115.68 143.749C115.637 143.975 116.075 144.543 116.428 144.811C116.404 144.419 116.263 144.043 116.022 143.732C115.97 143.689 115.904 143.666 115.836 143.666Z" fill="#407BFF"/>
<path d="M101.342 144.531L101.329 144.536C100.792 144.708 99.8304 144.952 99.4193 144.664C99.3586 144.622 99.3091 144.566 99.2749 144.501C99.2408 144.435 99.2231 144.363 99.2234 144.289C99.2201 144.244 99.2284 144.2 99.2474 144.16C99.2665 144.119 99.2957 144.085 99.3321 144.059C99.7183 143.787 101.169 144.321 101.333 144.384C101.347 144.39 101.36 144.4 101.368 144.412C101.377 144.425 101.382 144.439 101.383 144.455C101.384 144.47 101.381 144.485 101.374 144.499C101.367 144.512 101.356 144.524 101.342 144.531V144.531ZM99.4467 144.178L99.4276 144.19C99.4128 144.2 99.401 144.214 99.3937 144.23C99.3863 144.247 99.3837 144.265 99.3861 144.282C99.3851 144.331 99.396 144.379 99.418 144.423C99.4401 144.466 99.4724 144.503 99.5123 144.531C100.017 144.689 100.562 144.659 101.047 144.448C100.544 144.225 99.9937 144.133 99.4459 144.178H99.4467Z" fill="#407BFF"/>
<path d="M101.34 144.532C101.321 144.542 101.298 144.544 101.277 144.537C100.845 144.399 99.9485 143.754 99.9651 143.362C99.9692 143.27 100.022 143.15 100.241 143.102C100.32 143.085 100.402 143.083 100.482 143.098C100.561 143.113 100.637 143.145 100.704 143.19C101.056 143.527 101.293 143.965 101.382 144.444C101.385 144.458 101.384 144.472 101.379 144.486C101.375 144.499 101.367 144.512 101.357 144.521C101.352 144.526 101.346 144.529 101.34 144.532ZM100.185 143.295C100.129 143.325 100.128 143.36 100.127 143.373C100.115 143.609 100.735 144.125 101.184 144.329C101.101 143.947 100.903 143.599 100.615 143.333C100.566 143.299 100.511 143.276 100.452 143.264C100.393 143.253 100.333 143.254 100.275 143.267C100.244 143.272 100.214 143.282 100.185 143.295Z" fill="#407BFF"/>
<path d="M122.59 41.9138C122.502 43.254 122.345 44.5021 122.181 45.7908C122.017 47.0796 121.797 48.3426 121.556 49.6173C121.078 52.2207 120.372 54.777 119.446 57.2568L119.038 58.2176L118.935 58.4575L118.909 58.5173L118.867 58.6087L118.747 58.8453C118.589 59.1329 118.4 59.4019 118.182 59.6475C117.824 60.0503 117.405 60.3949 116.941 60.6688C116.565 60.8925 116.171 61.0839 115.763 61.241C114.403 61.7316 112.981 62.0284 111.538 62.1228C108.918 62.3185 106.285 62.2202 103.688 61.8297L103.781 59.2555L105.597 59.0504C106.205 58.9782 106.811 58.8843 107.413 58.8013C108.614 58.6244 109.803 58.4268 110.937 58.1636C111.985 57.9501 113.004 57.6123 113.973 57.1571C114.234 57.0474 114.462 56.8728 114.637 56.6498C114.648 56.5908 114.517 56.8491 114.671 56.4364L114.943 55.6425C115.608 53.3667 116.116 51.0482 116.465 48.703C116.661 47.5089 116.827 46.304 116.989 45.0958C117.15 43.8876 117.283 42.6545 117.41 41.4961L122.59 41.9138Z" fill="#FFC3BD"/>
<path d="M122.885 39.4258C124.565 42.2433 123.134 51.0985 123.134 51.0985L114.332 49.4718C114.332 49.4718 113.856 44.4064 115.531 40.5086C117.351 36.2662 120.85 36.0121 122.885 39.4258Z" fill="#407BFF"/>
<path d="M101.318 67.2201L96.6468 45.4939C96.4226 44.5661 95.9029 43.7364 95.166 43.1298C94.4291 42.5232 93.5149 42.1726 92.5613 42.1309H74.6641C75.6178 42.1724 76.5321 42.5229 77.2692 43.1296C78.0063 43.7362 78.5261 44.566 78.7504 45.4939L83.4213 67.2201C83.6455 68.1479 84.1652 68.9776 84.9022 69.5842C85.6391 70.1908 86.5532 70.5414 87.5068 70.5832H105.403C104.45 70.5414 103.536 70.1908 102.799 69.5842C102.062 68.9776 101.542 68.1479 101.318 67.2201Z" fill="#263238"/>
<path opacity="0.7" d="M101.318 67.2201L96.6468 45.4939C96.4226 44.5661 95.9029 43.7364 95.166 43.1298C94.4291 42.5232 93.5149 42.1726 92.5613 42.1309H74.6641C75.6178 42.1724 76.5321 42.5229 77.2692 43.1296C78.0063 43.7362 78.5261 44.566 78.7504 45.4939L83.4213 67.2201C83.6455 68.1479 84.1652 68.9776 84.9022 69.5842C85.6391 70.1908 86.5532 70.5414 87.5068 70.5832H105.403C104.45 70.5414 103.536 70.1908 102.799 69.5842C102.062 68.9776 101.542 68.1479 101.318 67.2201Z" fill="#407BFF"/>
<path d="M74.6628 42.1309H92.5593C91.643 42.148 90.7645 42.4993 90.0889 43.1185C89.4134 43.7378 88.9872 44.5826 88.8907 45.4939L84.248 95.9813C84.1512 96.8926 83.725 97.7372 83.0495 98.3565C82.374 98.9757 81.4956 99.327 80.5793 99.3443H69.409C68.9787 99.3523 68.5517 99.2683 68.1565 99.0979C67.7614 98.9274 67.4072 98.6745 67.1177 98.3561C66.8282 98.0377 66.6101 97.6611 66.478 97.2515C66.3458 96.8419 66.3027 96.4089 66.3515 95.9813L70.995 45.4939C71.0916 44.5827 71.5176 43.7381 72.193 43.1188C72.8684 42.4996 73.7467 42.1482 74.6628 42.1309Z" fill="#407BFF"/>
<path d="M77.5215 95.9805C77.4727 96.408 77.5158 96.8411 77.6479 97.2507C77.7801 97.6602 77.9982 98.0368 78.2877 98.3553C78.5772 98.6737 78.9314 98.9266 79.3265 99.097C79.7217 99.2675 80.1487 99.3515 80.579 99.3435H62.6825C62.2522 99.3516 61.8252 99.2677 61.4299 99.0973C61.0347 98.9269 60.6805 98.674 60.3909 98.3556C60.1014 98.0371 59.8833 97.6604 59.7512 97.2508C59.6191 96.8412 59.5761 96.4081 59.6251 95.9805H77.5215Z" fill="#263238"/>
<path opacity="0.7" d="M77.5215 95.9805C77.4727 96.408 77.5158 96.8411 77.6479 97.2507C77.7801 97.6602 77.9982 98.0368 78.2877 98.3553C78.5772 98.6737 78.9314 98.9266 79.3265 99.097C79.7217 99.2675 80.1487 99.3515 80.579 99.3435H62.6825C62.2522 99.3516 61.8252 99.2677 61.4299 99.0973C61.0347 98.9269 60.6805 98.674 60.3909 98.3556C60.1014 98.0371 59.8833 97.6604 59.7512 97.2508C59.6191 96.8412 59.5761 96.4081 59.6251 95.9805H77.5215Z" fill="#407BFF"/>
<g opacity="0.5">
<path opacity="0.5" d="M85.7904 47.7852H73.6801C73.5866 47.7865 73.4939 47.7678 73.4081 47.7305C73.3224 47.6932 73.2455 47.6381 73.1827 47.5689C73.1198 47.4996 73.0725 47.4178 73.0437 47.3288C73.0149 47.2398 73.0054 47.1457 73.0158 47.0528C73.0373 46.8545 73.1302 46.6709 73.2772 46.5361C73.4242 46.4013 73.6152 46.3247 73.8146 46.3204H85.9233C86.0168 46.3191 86.1095 46.3377 86.1953 46.375C86.281 46.4123 86.3579 46.4674 86.4207 46.5367C86.4835 46.6059 86.5309 46.6878 86.5597 46.7768C86.5884 46.8658 86.598 46.9598 86.5876 47.0528C86.5661 47.2508 86.4734 47.4342 86.3268 47.5689C86.1801 47.7036 85.9895 47.7805 85.7904 47.7852Z" fill="white"/>
<path opacity="0.5" d="M85.4271 51.7461H73.3168C73.2233 51.7474 73.1306 51.7288 73.0448 51.6915C72.9591 51.6542 72.8822 51.5991 72.8194 51.5298C72.7566 51.4605 72.7092 51.3787 72.6804 51.2897C72.6516 51.2007 72.6421 51.1066 72.6525 51.0137C72.674 50.8154 72.767 50.6318 72.914 50.497C73.061 50.3623 73.252 50.2856 73.4513 50.2813H85.5617C85.6552 50.28 85.7479 50.2986 85.8336 50.3359C85.9194 50.3732 85.9962 50.4283 86.0591 50.4976C86.1219 50.5669 86.1693 50.6487 86.198 50.7377C86.2268 50.8267 86.2363 50.9208 86.226 51.0137C86.2046 51.212 86.1117 51.3958 85.9647 51.5306C85.8177 51.6654 85.6266 51.742 85.4271 51.7461Z" fill="white"/>
<path opacity="0.5" d="M82.0991 55.709H72.9574C72.8639 55.7103 72.7712 55.6917 72.6855 55.6544C72.5997 55.6171 72.5229 55.562 72.46 55.4927C72.3972 55.4234 72.3498 55.3416 72.321 55.2526C72.2923 55.1636 72.2828 55.0695 72.2931 54.9766C72.3147 54.7783 72.4076 54.5947 72.5546 54.4599C72.7016 54.3252 72.8926 54.2485 73.092 54.2442H82.2337C82.3272 54.2429 82.4199 54.2615 82.5056 54.2988C82.5914 54.3361 82.6683 54.3912 82.7311 54.4605C82.7939 54.5298 82.8413 54.6116 82.8701 54.7006C82.8988 54.7896 82.9083 54.8837 82.898 54.9766C82.8764 55.1748 82.7835 55.3585 82.6365 55.4933C82.4895 55.628 82.2985 55.7047 82.0991 55.709Z" fill="white"/>
<path opacity="0.5" d="M75.6979 59.6699H72.5981C72.5046 59.6712 72.4119 59.6526 72.3261 59.6153C72.2403 59.578 72.1635 59.5229 72.1007 59.4536C72.0378 59.3844 71.9904 59.3025 71.9617 59.2135C71.9329 59.1246 71.9234 59.0305 71.9338 58.9375C71.9551 58.7394 72.0479 58.5557 72.1947 58.4209C72.3416 58.2862 72.5325 58.2094 72.7318 58.2051H75.8324C75.9259 58.2039 76.0186 58.2225 76.1044 58.2598C76.1902 58.2971 76.267 58.3522 76.3298 58.4215C76.3927 58.4907 76.44 58.5726 76.4688 58.6615C76.4976 58.7505 76.5071 58.8446 76.4967 58.9375C76.4752 59.1358 76.3823 59.3194 76.2353 59.4542C76.0883 59.589 75.8973 59.6657 75.6979 59.6699Z" fill="white"/>
<path opacity="0.5" d="M84.3484 63.6309H72.2348C72.1413 63.6322 72.0486 63.6135 71.9628 63.5762C71.877 63.539 71.8002 63.4838 71.7374 63.4146C71.6745 63.3453 71.6272 63.2635 71.5984 63.1745C71.5696 63.0855 71.5601 62.9914 71.5705 62.8985C71.592 62.7002 71.6849 62.5166 71.8319 62.3818C71.9789 62.247 72.1699 62.1704 72.3693 62.1661H84.4796C84.5731 62.1648 84.6658 62.1834 84.7516 62.2207C84.8374 62.258 84.9142 62.3131 84.977 62.3824C85.0399 62.4516 85.0873 62.5335 85.116 62.6225C85.1448 62.7115 85.1543 62.8055 85.1439 62.8985C85.1225 63.0962 85.03 63.2794 84.8837 63.4141C84.7374 63.5488 84.5472 63.6258 84.3484 63.6309Z" fill="white"/>
<path opacity="0.5" d="M79.2199 67.5938H71.8793C71.7858 67.5951 71.6931 67.5764 71.6073 67.5391C71.5216 67.5018 71.4447 67.4467 71.3819 67.3775C71.3191 67.3082 71.2717 67.2264 71.2429 67.1374C71.2141 67.0484 71.2046 66.9543 71.215 66.8614C71.2363 66.6632 71.3291 66.4795 71.476 66.3448C71.6228 66.21 71.8137 66.1333 72.013 66.129H79.3536C79.4471 66.1277 79.5398 66.1463 79.6256 66.1836C79.7113 66.2209 79.7882 66.276 79.851 66.3453C79.9138 66.4146 79.9612 66.4964 79.99 66.5854C80.0188 66.6743 80.0283 66.7684 80.0179 66.8614C79.9964 67.0595 79.9036 67.243 79.7568 67.3778C79.6099 67.5125 79.4191 67.5893 79.2199 67.5938Z" fill="white"/>
<path opacity="0.5" d="M83.6264 71.5547H71.516C71.4225 71.556 71.3298 71.5374 71.244 71.5001C71.1583 71.4628 71.0815 71.4077 71.0186 71.3384C70.9558 71.2691 70.9084 71.1873 70.8796 71.0983C70.8509 71.0093 70.8414 70.9152 70.8517 70.8223C70.8733 70.6241 70.9662 70.4404 71.1132 70.3056C71.2602 70.1709 71.4512 70.0942 71.6506 70.0899H83.7617C83.8552 70.0886 83.9479 70.1072 84.0337 70.1445C84.1195 70.1818 84.1963 70.2369 84.2591 70.3062C84.3219 70.3755 84.3693 70.4573 84.3981 70.5463C84.4269 70.6353 84.4364 70.7294 84.426 70.8223C84.4045 71.0207 84.3114 71.2045 84.1643 71.3392C84.0171 71.474 83.8259 71.5506 83.6264 71.5547Z" fill="white"/>
<path opacity="0.5" d="M80.2984 75.5156H71.1567C71.0632 75.5169 70.9704 75.4983 70.8847 75.461C70.7989 75.4237 70.7221 75.3686 70.6592 75.2993C70.5964 75.2301 70.549 75.1482 70.5203 75.0593C70.4915 74.9703 70.482 74.8762 70.4924 74.7832C70.5139 74.585 70.6068 74.4013 70.7538 74.2666C70.9008 74.1318 71.0918 74.0551 71.2912 74.0508H80.4329C80.5264 74.0496 80.6191 74.0682 80.7049 74.1055C80.7906 74.1428 80.8675 74.1979 80.9303 74.2672C80.9931 74.3364 81.0405 74.4183 81.0693 74.5072C81.098 74.5962 81.1076 74.6903 81.0972 74.7832C81.0757 74.9815 80.9827 75.1651 80.8357 75.2999C80.6887 75.4347 80.4977 75.5114 80.2984 75.5156Z" fill="white"/>
<path opacity="0.5" d="M73.8957 79.4766H70.7934C70.6999 79.4779 70.6072 79.4592 70.5214 79.4219C70.4356 79.3847 70.3588 79.3295 70.296 79.2603C70.2331 79.191 70.1858 79.1092 70.157 79.0202C70.1282 78.9312 70.1187 78.8371 70.1291 78.7442C70.1506 78.5459 70.2435 78.3623 70.3905 78.2275C70.5375 78.0927 70.7285 78.0161 70.9279 78.0118H74.0319C74.1254 78.0105 74.2181 78.0291 74.3039 78.0664C74.3896 78.1037 74.4665 78.1588 74.5293 78.2281C74.5921 78.2973 74.6395 78.3792 74.6683 78.4682C74.697 78.5572 74.7066 78.6512 74.6962 78.7442C74.6746 78.9427 74.5815 79.1266 74.4341 79.2614C74.2868 79.3962 74.0954 79.4727 73.8957 79.4766Z" fill="white"/>
<path opacity="0.5" d="M82.5482 83.4395H70.4379C70.3444 83.4408 70.2517 83.4221 70.1659 83.3848C70.0802 83.3475 70.0033 83.2924 69.9405 83.2232C69.8777 83.1539 69.8303 83.0721 69.8015 82.9831C69.7728 82.8941 69.7632 82.8 69.7736 82.7071C69.7951 82.5088 69.8881 82.3252 70.0351 82.1904C70.182 82.0556 70.3731 81.979 70.5724 81.9747H82.6828C82.7763 81.9734 82.869 81.992 82.9547 82.0293C83.0405 82.0666 83.1173 82.1217 83.1802 82.191C83.243 82.2602 83.2904 82.3421 83.3192 82.4311C83.3479 82.52 83.3574 82.6141 83.3471 82.7071C83.3255 82.9053 83.2326 83.089 83.0856 83.2237C82.9386 83.3585 82.7476 83.4352 82.5482 83.4395Z" fill="white"/>
<path opacity="0.5" d="M77.4152 87.4004H70.0746C69.9811 87.4017 69.8884 87.3831 69.8027 87.3458C69.7169 87.3085 69.64 87.2534 69.5772 87.1841C69.5144 87.1148 69.467 87.033 69.4382 86.944C69.4095 86.855 69.3999 86.761 69.4103 86.668C69.4317 86.4697 69.5246 86.2859 69.6716 86.1511C69.8186 86.0163 70.0097 85.9397 70.2092 85.9356H77.5489C77.6424 85.9343 77.7351 85.953 77.8209 85.9902C77.9067 86.0275 77.9835 86.0827 78.0463 86.1519C78.1092 86.2212 78.1565 86.303 78.1853 86.392C78.2141 86.481 78.2236 86.5751 78.2132 86.668C78.1917 86.8661 78.0989 87.0497 77.9521 87.1844C77.8053 87.3192 77.6145 87.3959 77.4152 87.4004Z" fill="white"/>
<path opacity="0.5" d="M81.8256 91.3614H69.7153C69.6217 91.3626 69.529 91.344 69.4433 91.3067C69.3575 91.2694 69.2807 91.2143 69.2178 91.145C69.155 91.0758 69.1076 90.9939 69.0789 90.905C69.0501 90.816 69.0406 90.7219 69.0509 90.6289C69.0725 90.4307 69.1654 90.247 69.3124 90.1123C69.4594 89.9775 69.6504 89.9008 69.8498 89.8965H81.9584C82.052 89.8953 82.1447 89.9139 82.2304 89.9512C82.3162 89.9885 82.393 90.0436 82.4559 90.1129C82.5187 90.1821 82.5661 90.264 82.5948 90.3529C82.6236 90.4419 82.6331 90.536 82.6227 90.6289C82.6012 90.8269 82.5086 91.0104 82.3619 91.1451C82.2153 91.2798 82.0247 91.3567 81.8256 91.3614Z" fill="white"/>
</g>
<path d="M104.834 59.5383L102.205 57.2539L100.973 61.459C100.973 61.459 103.643 62.9072 104.568 61.5777L104.834 59.5383Z" fill="#FFC3BD"/>
<path d="M99.3436 57.0879L98.4883 60.612L100.973 61.459L102.205 57.2531L99.3436 57.0879Z" fill="#FFC3BD"/>
</svg>
