<svg width="15" height="14" viewBox="0 0 15 14" fill="none" xmlns="http://www.w3.org/2000/svg">
<path d="M14.7781 6.59688C14.6188 6.38438 14.3 6.27812 13.9813 6.27812H10.3688C9.9969 6.27812 9.67815 5.95937 9.67815 5.5875V1.07188C9.67815 0.4875 9.09377 0.0625 8.56252 0.0625C8.03127 0.0625 7.60627 0.4875 7.60627 1.07188C7.60627 2.29375 7.2344 3.51562 6.49065 4.525L4.84377 6.38437V12.6C5.7469 13.3969 7.12815 13.875 8.45627 13.875H12.9719C13.45 13.875 13.8219 13.5562 13.9281 13.0781L14.9906 7.18125C14.9375 6.91562 14.9375 6.70313 14.7781 6.59688Z" fill="#90949C"/>
<path d="M2.61252 6.96875H1.23127C0.859399 6.96875 0.540649 7.2875 0.540649 7.65937V13.1844C0.540649 13.5563 0.859399 13.875 1.23127 13.875H2.61252C2.9844 13.875 3.30315 13.5563 3.30315 13.1844V7.65937C3.30315 7.2875 2.9844 6.96875 2.61252 6.96875Z" fill="#90949C"/>
</svg>
