<svg width="22" height="22" viewBox="0 0 22 22" fill="none" xmlns="http://www.w3.org/2000/svg">
<path d="M4.48045 14.7145C3.52462 13.1032 3.18988 11.1984 3.53908 9.35772C3.88829 7.51707 4.89743 5.86721 6.377 4.71795C7.85657 3.56869 9.7048 2.99909 11.5746 3.1161C13.4444 3.2331 15.2072 4.02868 16.532 5.35343C17.8567 6.67817 18.6523 8.44097 18.7693 10.3108C18.8864 12.1806 18.3168 14.0288 17.1675 15.5084C16.0183 16.988 14.3684 17.9971 12.5278 18.3464C10.6871 18.6956 8.7823 18.3608 7.17099 17.405L7.171 17.4049L4.5139 18.1641C4.40397 18.1955 4.28764 18.197 4.17696 18.1683C4.06628 18.1396 3.96529 18.0818 3.88444 18.001C3.8036 17.9202 3.74584 17.8192 3.71717 17.7085C3.68849 17.5978 3.68993 17.4815 3.72134 17.3715L4.48051 14.7144L4.48045 14.7145Z" stroke="#888888" stroke-width="1.5237" stroke-linecap="round" stroke-linejoin="round"/>
</svg>
