<svg width="86" height="87" viewBox="0 0 86 87" fill="none" xmlns="http://www.w3.org/2000/svg">
<g opacity="0.9" filter="url(#filter0_d_1558_58909)">
<path d="M84.0955 48.631L82.4786 46.4165C81.1429 44.5887 81.1253 42.1106 82.4259 40.2476L84.0077 38.0156C85.8355 35.4144 84.9919 31.8115 82.1799 30.3001L79.7721 28.9995C77.7685 27.9274 76.6788 25.6954 77.0479 23.4633L77.5049 20.7568C78.0321 17.6284 75.6946 14.7285 72.5135 14.6055L69.7718 14.4824C67.5046 14.3946 65.5537 12.8479 64.921 10.6686L64.1653 8.03235C63.2866 4.97427 59.9297 3.39251 56.9946 4.65792L54.4814 5.74758C52.39 6.64391 49.9822 6.11665 48.4531 4.41186L46.6253 2.37315C44.4987 0.000499606 40.7903 0.0356499 38.6989 2.42587L36.9062 4.49974C35.4123 6.20453 33.0046 6.78451 30.9131 5.92333L28.3823 4.88639C25.4472 3.67371 22.108 5.3082 21.2643 8.38385L20.5438 11.0201C19.9638 13.2346 18.0481 14.7988 15.7809 14.9218L13.0392 15.08C9.85807 15.2557 7.5733 18.1908 8.15328 21.3016L8.64538 23.9906C9.04961 26.2226 7.9951 28.4723 6.00911 29.5619L3.61889 30.8976C0.842011 32.4442 0.0335537 36.0647 1.9141 38.6307L3.53101 40.8452C4.86672 42.673 4.8843 45.1511 3.58374 47.014L2.00197 49.2461C0.174155 51.8472 1.01776 55.4501 3.82979 56.9616L6.23759 58.2621C8.24115 59.3342 9.33081 61.5663 8.96173 63.7983L8.48721 66.4873C7.95995 69.6157 10.2974 72.5156 13.4786 72.6386L16.2203 72.7617C18.4875 72.8495 20.4383 74.3961 21.071 76.5755L21.8268 79.2117C22.7055 82.2698 26.0624 83.8516 28.9974 82.5862L31.5107 81.4965C33.6021 80.6002 36.0099 81.1274 37.5389 82.8146L39.3668 84.8534C41.4934 87.226 45.2017 87.1909 47.2932 84.8006L49.0858 82.7268C50.5797 81.022 52.9875 80.442 55.079 81.3032L57.6098 82.3401C60.5448 83.5528 63.8841 81.9183 64.7277 78.8427L65.4483 76.2064C66.0459 74.0271 67.9791 72.4629 70.2463 72.3223L72.988 72.1641C76.1691 71.9883 78.4539 69.0533 77.8739 65.9425L77.3818 63.2535C76.9776 61.0214 78.0321 58.7718 80.0181 57.6822L82.4083 56.3465C85.1676 54.835 85.9585 51.1969 84.0955 48.631ZM43.0048 71.3908C27.6793 71.3908 15.2536 58.9652 15.2536 43.6396C15.2536 28.3141 27.6793 15.8884 43.0048 15.8884C58.3304 15.8884 70.756 28.3141 70.756 43.6396C70.756 58.9652 58.3304 71.3908 43.0048 71.3908Z" fill="url(#paint0_linear_1558_58909)"/>
<path d="M43.08 29.8333C42.28 29.8333 41.6667 30.0733 41.24 30.5533C40.8133 31.0333 40.6 31.6999 40.6 32.5533V47.2333C40.6 48.1133 40.8133 48.7799 41.24 49.2333C41.6667 49.7133 42.28 49.9533 43.08 49.9533C43.88 49.9533 44.4933 49.7133 44.92 49.2333C45.3733 48.7799 45.6 48.1133 45.6 47.2333V32.5533C45.6 31.6999 45.3867 31.0333 44.96 30.5533C44.5333 30.0733 43.9067 29.8333 43.08 29.8333ZM43.08 53.6733C42.1467 53.6733 41.4133 53.8999 40.88 54.3533C40.3733 54.8333 40.12 55.4866 40.12 56.3133C40.12 57.1666 40.3733 57.8199 40.88 58.2733C41.4133 58.7266 42.1467 58.9533 43.08 58.9533C44.04 58.9533 44.7733 58.7266 45.28 58.2733C45.7867 57.8199 46.04 57.1666 46.04 56.3133C46.04 55.4866 45.7867 54.8333 45.28 54.3533C44.7733 53.8999 44.04 53.6733 43.08 53.6733Z" fill="url(#paint1_linear_1558_58909)"/>
</g>
<defs>
<filter id="filter0_d_1558_58909" x="-103.511" y="-80.591" width="293.026" height="294.811" filterUnits="userSpaceOnUse" color-interpolation-filters="sRGB">
<feFlood flood-opacity="0" result="BackgroundImageFix"/>
<feColorMatrix in="SourceAlpha" type="matrix" values="0 0 0 0 0 0 0 0 0 0 0 0 0 0 0 0 0 0 127 0" result="hardAlpha"/>
<feOffset dy="23.2012"/>
<feGaussianBlur stdDeviation="52.2028"/>
<feColorMatrix type="matrix" values="0 0 0 0 0 0 0 0 0 0 0 0 0 0 0 0 0 0 0.25 0"/>
<feBlend mode="normal" in2="BackgroundImageFix" result="effect1_dropShadow_1558_58909"/>
<feBlend mode="normal" in="SourceGraphic" in2="effect1_dropShadow_1558_58909" result="shape"/>
</filter>
<linearGradient id="paint0_linear_1558_58909" x1="3.51954" y1="0.613301" x2="85.6138" y2="3.79132" gradientUnits="userSpaceOnUse">
<stop stop-color="#025999"/>
<stop offset="1" stop-color="#0093FF"/>
</linearGradient>
<linearGradient id="paint1_linear_1558_58909" x1="43.5" y1="71.1133" x2="43.5" y2="16.1133" gradientUnits="userSpaceOnUse">
<stop/>
<stop offset="1" stop-color="#1A97F2"/>
</linearGradient>
</defs>
</svg>
