<svg width="24" height="26" viewBox="0 0 24 26" fill="none" xmlns="http://www.w3.org/2000/svg">
<path d="M6.26151 1.78223L5.09539 2.94834L3.05469 16.0672L9.1768 19.274L10.0514 20.4401L15.882 18.3994L22.2956 13.4434L22.5871 8.77892L22.2956 2.07376L21.421 1.78223H6.26151Z" fill="white"/>
<path d="M5.5563 0.862793L0.722656 5.34737V21.4919H6.52303V25.9764L11.3567 21.4919H15.2236L23.9241 13.4196V0.862793H5.5563ZM21.9907 12.5227L18.1238 16.1104H14.2569L10.8733 19.2496V16.1104H6.52303V2.65663H21.9907V12.5227Z" fill="black"/>
<path d="M19.0897 5.7959H17.1562V11.1774H19.0897V5.7959Z" fill="black"/>
<path d="M13.7772 5.7959H11.8438V11.1774H13.7772V5.7959Z" fill="black"/>
</svg>
