<svg width="22" height="22" viewBox="0 0 22 22" fill="none" xmlns="http://www.w3.org/2000/svg">
<g clip-path="url(#clip0_2250_8285)">
<path d="M4.9652 15.1867C4.06395 14.2295 3.58008 13.1559 3.58008 11.4155C3.58008 8.35298 5.72995 5.6081 8.85633 4.25098L9.6377 5.45673C6.71958 7.03523 6.14908 9.0836 5.92158 10.3751C6.39145 10.1319 7.00658 10.047 7.60945 10.103C9.18795 10.2491 10.4322 11.545 10.4322 13.1559C10.4322 13.9681 10.1095 14.747 9.53522 15.3214C8.96089 15.8957 8.18193 16.2184 7.3697 16.2184C6.43083 16.2184 5.53308 15.7896 4.9652 15.1867ZM13.7152 15.1867C12.814 14.2295 12.3301 13.1559 12.3301 11.4155C12.3301 8.35298 14.48 5.6081 17.6063 4.25098L18.3877 5.45673C15.4696 7.03523 14.8991 9.0836 14.6716 10.3751C15.1415 10.1319 15.7566 10.047 16.3595 10.103C17.938 10.2491 19.1822 11.545 19.1822 13.1559C19.1822 13.9681 18.8595 14.747 18.2852 15.3214C17.7109 15.8957 16.9319 16.2184 16.1197 16.2184C15.1808 16.2184 14.2831 15.7896 13.7152 15.1867Z" fill="#888888"/>
</g>
<defs>
<clipPath id="clip0_2250_8285">
<rect width="21" height="21" fill="white" transform="translate(0.955078 0.03125)"/>
</clipPath>
</defs>
</svg>
