<svg width="15" height="15" viewBox="0 0 15 15" fill="none" xmlns="http://www.w3.org/2000/svg">
<path d="M12.5164 5.47361C12.3673 5.47361 12.2243 5.53284 12.1189 5.63826C12.0135 5.74368 11.9543 5.88666 11.9543 6.03574V10.5328C11.9543 10.6819 11.895 10.8248 11.7896 10.9303C11.6842 11.0357 11.5412 11.0949 11.3921 11.0949H3.52233C3.37324 11.0949 3.23026 11.0357 3.12484 10.9303C3.01942 10.8248 2.9602 10.6819 2.9602 10.5328V5.14196L6.26552 8.44728C6.58171 8.76308 7.01034 8.94047 7.45723 8.94047C7.90412 8.94047 8.33275 8.76308 8.64894 8.44728L10.667 6.43486C10.7728 6.329 10.8323 6.18544 10.8323 6.03574C10.8323 5.88605 10.7728 5.74248 10.667 5.63663C10.5611 5.53078 10.4176 5.47131 10.2679 5.47131C10.1182 5.47131 9.97462 5.53078 9.86876 5.63663L7.85634 7.65468C7.80408 7.70736 7.74191 7.74918 7.67341 7.77772C7.60491 7.80626 7.53144 7.82095 7.45723 7.82095C7.38302 7.82095 7.30955 7.80626 7.24105 7.77772C7.17255 7.74918 7.11038 7.70736 7.05812 7.65468L3.7528 4.34936H8.01936C8.16845 4.34936 8.31143 4.29013 8.41684 4.18471C8.52226 4.07929 8.58149 3.93631 8.58149 3.78723C8.58149 3.63814 8.52226 3.49516 8.41684 3.38974C8.31143 3.28432 8.16845 3.2251 8.01936 3.2251H3.52233C3.07507 3.2251 2.64613 3.40277 2.32987 3.71903C2.01361 4.03529 1.83594 4.46423 1.83594 4.91149V10.5328C1.83594 10.98 2.01361 11.409 2.32987 11.7252C2.64613 12.0415 3.07507 12.2192 3.52233 12.2192H11.3921C11.8394 12.2192 12.2683 12.0415 12.5846 11.7252C12.9009 11.409 13.0785 10.98 13.0785 10.5328V6.03574C13.0785 5.88666 13.0193 5.74368 12.9139 5.63826C12.8085 5.53284 12.6655 5.47361 12.5164 5.47361ZM10.2679 4.34936H12.5164C12.6655 4.34936 12.8085 4.29013 12.9139 4.18471C13.0193 4.07929 13.0785 3.93631 13.0785 3.78723C13.0785 3.63814 13.0193 3.49516 12.9139 3.38974C12.8085 3.28432 12.6655 3.2251 12.5164 3.2251H10.2679C10.1188 3.2251 9.97581 3.28432 9.87039 3.38974C9.76497 3.49516 9.70575 3.63814 9.70575 3.78723C9.70575 3.93631 9.76497 4.07929 9.87039 4.18471C9.97581 4.29013 10.1188 4.34936 10.2679 4.34936Z" fill="#004C84"/>
</svg>
