<svg width="28" height="28" viewBox="0 0 28 28" fill="none" xmlns="http://www.w3.org/2000/svg">
<g clip-path="url(#clip0_4059_65654)">
<path d="M26.4357 6.875L12.4883 17.1407L21.1513 22.7716L26.9988 6.96165C26.9555 6.96165 26.9122 6.875 26.4357 6.875Z" fill="#FF4242"/>
<path d="M10.1055 22.125L15.2167 18.7031Z" fill="#CD0B03"/>
<path d="M11.842 16.4922L10.1094 22.1231L15.2206 18.7012L11.842 16.4922Z" fill="#FC2020"/>
<path d="M11.8406 16.4929L10.1514 22.1238L8.80859 14.7602L26.5677 5.66406L11.8406 16.4929Z" fill="#FC2020"/>
<path d="M26.1338 6.44315C25.9606 6.44315 25.8306 6.35651 25.744 6.22656L11.8398 16.4922L20.5028 22.1232L26.2637 6.44315C26.2637 6.44315 26.2204 6.44315 26.1338 6.44315Z" fill="#FC2020"/>
<path d="M23.968 7.39797L11.8398 16.4942L19.6365 21.2588L24.8343 6.96484L23.968 7.39797Z" fill="#FF4242"/>
<path d="M25.139 5.96484L1.40234 10.8594L8.80921 14.7578L25.4855 6.22473C25.3122 6.18143 25.2256 6.09479 25.139 5.96484Z" fill="white"/>
<path d="M23.6288 6.52344L2.125 10.9708L8.80877 14.7592L24.2722 7.22241C24.1423 7.17911 23.6721 6.65338 23.6288 6.52344Z" fill="#FF4242"/>
<path d="M20.5028 22.5564C20.4161 22.5564 20.3295 22.5131 20.2862 22.4698L11.6232 16.8388C11.4932 16.7955 11.4066 16.6656 11.4066 16.4923C11.4066 16.3623 11.4499 16.2324 11.5798 16.1458L21.9754 8.52229L9.02426 15.1495C8.89432 15.1928 8.76438 15.1928 8.63443 15.1495L1.22762 11.2512C1.05438 11.1646 0.967732 10.9913 1.01103 10.8181C1.01103 10.6015 1.14097 10.4715 1.31421 10.4282L26.4369 5.23047C26.5236 5.23047 26.5669 5.23047 26.6535 5.23047C26.7401 5.27377 26.8267 5.31711 26.9134 5.40371C26.9134 5.40371 26.9134 5.40371 26.9134 5.44701C27 5.53365 27 5.62025 27 5.70689C27 5.75019 27 5.75019 27 5.79354V5.83684L20.9359 22.2965C20.8926 22.4265 20.806 22.5131 20.676 22.5564C20.5894 22.5564 20.5461 22.5564 20.5028 22.5564ZM12.6194 16.449L20.2862 21.4302L25.6573 6.87638L12.6194 16.449ZM2.70029 11.0346L8.80773 14.2832L23.5348 6.74644L2.70029 11.0346Z" fill="#CD0B03"/>
<path d="M10.1071 22.5559C9.97719 22.5559 9.84724 22.4692 9.7606 22.3826C9.63065 22.1661 9.67395 21.9062 9.89054 21.7762L15.0017 18.3543C15.2183 18.2244 15.4782 18.2677 15.6081 18.4843C15.7381 18.7009 15.6948 18.9608 15.4782 19.0907L10.367 22.5126C10.2804 22.5125 10.1938 22.5559 10.1071 22.5559Z" fill="#CD0B03"/>
<path d="M10.1502 22.555C10.1069 22.555 10.1069 22.555 10.1502 22.555C9.93363 22.555 9.76039 22.3818 9.7171 22.2085L8.37431 14.8449C8.33102 14.6717 8.41761 14.4551 8.5909 14.3684L26.35 5.2723C26.5666 5.18566 26.7831 5.22901 26.9131 5.44554C27.043 5.61879 26.9997 5.87867 26.7831 6.00861L12.2293 16.7507L10.5401 22.2518C10.4967 22.4251 10.3235 22.555 10.1502 22.555ZM9.28392 15.0182L10.2369 20.3026L11.4064 16.4043C11.4497 16.3176 11.493 16.231 11.5796 16.1877L21.9752 8.56423L9.28392 15.0182Z" fill="#CD0B03"/>
<path d="M10.1085 22.5566C10.0218 22.5566 9.93523 22.5133 9.84858 22.47C9.71864 22.34 9.63199 22.1668 9.67534 21.9935L11.408 16.3625C11.4513 16.2326 11.5379 16.146 11.6678 16.1027C11.7978 16.0594 11.9277 16.0594 12.0577 16.146L15.4362 18.355C15.5662 18.4417 15.6528 18.5716 15.6528 18.7016C15.6528 18.8315 15.5662 19.0048 15.4796 19.0481L10.3684 22.47C10.2818 22.5133 10.1951 22.5566 10.1085 22.5566ZM12.101 17.1856L10.8881 21.0839L14.4399 18.7016L12.101 17.1856Z" fill="#CD0B03"/>
</g>
<defs>
<clipPath id="clip0_4059_65654">
<rect width="26" height="26" fill="white" transform="translate(1 1)"/>
</clipPath>
</defs>
</svg>
