<svg width="21" height="22" viewBox="0 0 21 22" fill="none" xmlns="http://www.w3.org/2000/svg">
<g clip-path="url(#clip0_2247_51144)">
<path d="M10.3126 7.97705C8.80016 7.97705 7.56641 9.26819 7.56641 10.8586C7.56641 12.4448 8.79607 13.7401 10.3126 13.7401C11.8251 13.7401 13.0589 12.4489 13.0589 10.8586C13.0589 9.27229 11.8251 7.97705 10.3126 7.97705V7.97705Z" fill="#888888"/>
<path d="M10.314 15.4127C7.87925 15.4127 5.89539 13.3715 5.89539 10.8589C5.89539 8.3463 7.87925 6.30506 10.314 6.30506C12.7487 6.30506 14.7325 8.3463 14.7325 10.8589C14.7325 13.3715 12.7487 15.4127 10.314 15.4127V15.4127ZM20.4095 10.4162C17.7944 6.21899 14.2694 3.90723 10.4943 3.90723C6.71927 3.90723 3.19424 6.21899 0.579165 10.4162C0.411112 10.6868 0.411112 11.0311 0.579165 11.3016C3.19424 15.4988 6.71927 17.8106 10.4943 17.8106C14.2694 17.8106 17.7903 15.4988 20.4095 11.3016C20.5775 11.0311 20.5775 10.6868 20.4095 10.4162Z" fill="#888888"/>
</g>
<defs>
<clipPath id="clip0_2247_51144">
<rect width="20.9862" height="20.9862" fill="white" transform="translate(0 0.366211)"/>
</clipPath>
</defs>
</svg>
