<svg width="29" height="29" viewBox="0 0 29 29" fill="none" xmlns="http://www.w3.org/2000/svg">
<path d="M14.5788 19.2657C11.8111 19.2657 9.57065 17.1234 9.36449 14.4086L5.53678 11.4504C5.03359 12.0817 4.57055 12.7491 4.1969 13.4789C4.11343 13.644 4.06994 13.8264 4.06994 14.0114C4.06994 14.1964 4.11343 14.3789 4.1969 14.544C6.1757 18.4049 10.0932 21.0171 14.5788 21.0171C15.5607 21.0171 16.508 20.8712 17.4209 20.6355L15.5275 19.1704C15.2148 19.2308 14.8972 19.2627 14.5788 19.2657ZM26.0298 21.3857L21.9959 18.268C23.2213 17.2354 24.2291 15.9693 24.9607 14.5436C25.0441 14.3785 25.0876 14.1961 25.0876 14.011C25.0876 13.826 25.0441 13.6436 24.9607 13.4785C22.9819 9.61758 19.0644 7.00532 14.5788 7.00532C12.7001 7.0076 10.852 7.48054 9.2032 8.38096L4.56106 4.79299C4.50052 4.74588 4.4313 4.71117 4.35735 4.69083C4.28339 4.67048 4.20615 4.66492 4.13004 4.67444C4.05393 4.68396 3.98045 4.70839 3.91378 4.74632C3.84711 4.78426 3.78858 4.83495 3.74151 4.89552L3.02523 5.8176C2.93021 5.93983 2.88764 6.0948 2.90687 6.24842C2.92609 6.40204 3.00555 6.54174 3.12777 6.63678L24.5965 23.2295C24.657 23.2766 24.7263 23.3113 24.8002 23.3316C24.8742 23.352 24.9514 23.3575 25.0275 23.348C25.1036 23.3385 25.1771 23.3141 25.2438 23.2761C25.3104 23.2382 25.369 23.1875 25.416 23.1269L26.1327 22.2049C26.2277 22.0826 26.2702 21.9276 26.2509 21.774C26.2316 21.6203 26.1521 21.4807 26.0298 21.3857ZM19.326 16.2042L17.892 15.0957C18.0128 14.7467 18.0768 14.3805 18.0817 14.0112C18.0889 13.4706 17.9691 12.9357 17.732 12.4498C17.4949 11.9638 17.1472 11.5402 16.7167 11.213C16.2863 10.8857 15.785 10.6641 15.2533 10.5657C14.7216 10.4673 14.1743 10.495 13.6552 10.6466C13.8753 10.9447 13.9943 11.3054 13.995 11.6759C13.9895 11.7992 13.9707 11.9216 13.9388 12.0408L11.2528 9.96495C12.1858 9.18525 13.3629 8.7577 14.5788 8.7568C15.2689 8.75641 15.9523 8.89206 16.59 9.15599C17.2277 9.41991 17.8071 9.80693 18.2951 10.2949C18.7831 10.7829 19.1701 11.3623 19.434 12C19.6979 12.6377 19.8336 13.3211 19.8332 14.0112C19.8332 14.8005 19.6402 15.5361 19.326 16.2046V16.2042Z" fill="#888888"/>
</svg>
