<svg width="38" height="38" viewBox="0 0 38 38" fill="none" xmlns="http://www.w3.org/2000/svg">
<rect x="0.609375" y="0.0820312" width="37.0473" height="37.0473" rx="18.5236" fill="url(#paint0_linear_669_17017)"/>
<path d="M19.1352 9.49556C22.105 9.49556 22.4536 9.5088 23.6273 9.56175C24.7129 9.6103 25.2998 9.79122 25.6925 9.94566C26.2132 10.1486 26.5839 10.3869 26.9722 10.7753C27.3605 11.1636 27.6032 11.5342 27.8018 12.0549C27.9518 12.4477 28.1372 13.0346 28.1857 14.1201C28.2386 15.2939 28.2519 15.6425 28.2519 18.6123C28.2519 21.582 28.2386 21.9306 28.1857 23.1044C28.1372 24.1899 27.9562 24.7768 27.8018 25.1696C27.5988 25.6903 27.3605 26.0609 26.9722 26.4492C26.5839 26.8376 26.2132 27.0803 25.6925 27.2788C25.2998 27.4289 24.7129 27.6142 23.6273 27.6627C22.4536 27.7157 22.105 27.7289 19.1352 27.7289C16.1654 27.7289 15.8168 27.7157 14.643 27.6627C13.5575 27.6142 12.9706 27.4333 12.5779 27.2788C12.0572 27.0759 11.6865 26.8376 11.2982 26.4492C10.9099 26.0609 10.6672 25.6903 10.4686 25.1696C10.3186 24.7768 10.1332 24.1899 10.0847 23.1044C10.0317 21.9306 10.0185 21.582 10.0185 18.6123C10.0185 15.6425 10.0317 15.2939 10.0847 14.1201C10.1332 13.0346 10.3141 12.4477 10.4686 12.0549C10.6716 11.5342 10.9099 11.1636 11.2982 10.7753C11.6865 10.3869 12.0572 10.1442 12.5779 9.94566C12.9706 9.79563 13.5575 9.6103 14.643 9.56175C15.8168 9.50439 16.1698 9.49556 19.1352 9.49556ZM19.1352 7.49219C16.1169 7.49219 15.7374 7.50543 14.5504 7.55838C13.3678 7.61133 12.5602 7.80108 11.8542 8.07467C11.1217 8.35708 10.5039 8.74099 9.88611 9.35877C9.26833 9.97655 8.88884 10.5987 8.60201 11.3268C8.32842 12.0329 8.13867 12.8404 8.08572 14.0274C8.03277 15.21 8.01953 15.5895 8.01953 18.6078C8.01953 21.6261 8.03277 22.0056 8.08572 23.1927C8.13867 24.3753 8.32842 25.1828 8.60201 25.8932C8.88443 26.6258 9.26833 27.2435 9.88611 27.8613C10.5039 28.4791 11.1261 28.8586 11.8542 29.1454C12.5602 29.419 13.3678 29.6088 14.5548 29.6617C15.7418 29.7147 16.1169 29.7279 19.1396 29.7279C22.1623 29.7279 22.5374 29.7147 23.7244 29.6617C24.907 29.6088 25.7146 29.419 26.425 29.1454C27.1575 28.863 27.7753 28.4791 28.3931 27.8613C29.0109 27.2435 29.3904 26.6213 29.6772 25.8932C29.9508 25.1872 30.1405 24.3797 30.1935 23.1927C30.2464 22.0056 30.2597 21.6306 30.2597 18.6078C30.2597 15.5851 30.2464 15.21 30.1935 14.023C30.1405 12.8404 29.9508 12.0329 29.6772 11.3224C29.3948 10.5899 29.0109 9.97214 28.3931 9.35436C27.7753 8.73658 27.1531 8.35708 26.425 8.07025C25.719 7.79667 24.9114 7.60692 23.7244 7.55397C22.533 7.50543 22.1535 7.49219 19.1352 7.49219Z" fill="white"/>
<path d="M19.1358 12.8984C15.9852 12.8984 13.4258 15.4534 13.4258 18.6085C13.4258 21.7636 15.9807 24.3186 19.1358 24.3186C22.2909 24.3186 24.8459 21.7636 24.8459 18.6085C24.8459 15.4534 22.2909 12.8984 19.1358 12.8984ZM19.1358 22.3108C17.0883 22.3108 15.4292 20.6516 15.4292 18.6041C15.4292 16.5566 17.0883 14.8974 19.1358 14.8974C21.1833 14.8974 22.8425 16.5566 22.8425 18.6041C22.8425 20.6516 21.1833 22.3108 19.1358 22.3108Z" fill="white"/>
<path d="M25.0709 14.0051C25.8069 14.0051 26.4036 13.4085 26.4036 12.6725C26.4036 11.9365 25.8069 11.3398 25.0709 11.3398C24.3349 11.3398 23.7383 11.9365 23.7383 12.6725C23.7383 13.4085 24.3349 14.0051 25.0709 14.0051Z" fill="white"/>
<defs>
<linearGradient id="paint0_linear_669_17017" x1="36.9446" y1="37.1293" x2="-0.102672" y2="0.0820303" gradientUnits="userSpaceOnUse">
<stop stop-color="#FBE18A"/>
<stop offset="0.21" stop-color="#FCBB45"/>
<stop offset="0.38" stop-color="#F75274"/>
<stop offset="0.52" stop-color="#D53692"/>
<stop offset="0.74" stop-color="#8F39CE"/>
<stop offset="1" stop-color="#5B4FE9"/>
</linearGradient>
</defs>
</svg>
