<svg width="14" height="15" viewBox="0 0 14 15" fill="none" xmlns="http://www.w3.org/2000/svg">
<path d="M9.99806 4.04555C9.86465 4.04555 9.73423 4.08512 9.6233 4.15924C9.51237 4.23336 9.42591 4.33871 9.37486 4.46197C9.3238 4.58523 9.31044 4.72086 9.33647 4.85171C9.3625 4.98256 9.42674 5.10275 9.52108 5.19709C9.61542 5.29143 9.73561 5.35567 9.86646 5.3817C9.99731 5.40773 10.1329 5.39437 10.2562 5.34332C10.3795 5.29226 10.4848 5.2058 10.5589 5.09487C10.6331 4.98394 10.6726 4.85352 10.6726 4.72011C10.6726 4.54121 10.6015 4.36963 10.475 4.24313C10.3485 4.11662 10.177 4.04555 9.99806 4.04555ZM12.5839 5.40591C12.5729 4.93951 12.4856 4.47806 12.3253 4.03993C12.1823 3.66507 11.9599 3.32562 11.6732 3.04496C11.3949 2.75683 11.0546 2.53577 10.6782 2.39851C10.2413 2.23334 9.77931 2.14399 9.31227 2.13431C8.71641 2.10059 8.52528 2.10059 6.99629 2.10059C5.4673 2.10059 5.27618 2.10059 4.68032 2.13431C4.21328 2.14399 3.75131 2.23334 3.31435 2.39851C2.93866 2.53716 2.59872 2.75803 2.31938 3.04496C2.03124 3.32332 1.81019 3.66355 1.67293 4.03993C1.50775 4.4769 1.4184 4.93886 1.40873 5.40591C1.375 6.00176 1.375 6.19289 1.375 7.72188C1.375 9.25087 1.375 9.44199 1.40873 10.0379C1.4184 10.5049 1.50775 10.9669 1.67293 11.4038C1.81019 11.7802 2.03124 12.1204 2.31938 12.3988C2.59872 12.6857 2.93866 12.9066 3.31435 13.0452C3.75131 13.2104 4.21328 13.2998 4.68032 13.3094C5.27618 13.3432 5.4673 13.3432 6.99629 13.3432C8.52528 13.3432 8.71641 13.3432 9.31227 13.3094C9.77931 13.2998 10.2413 13.2104 10.6782 13.0452C11.0546 12.908 11.3949 12.6869 11.6732 12.3988C11.9612 12.1192 12.1838 11.7794 12.3253 11.4038C12.4856 10.9657 12.5729 10.5043 12.5839 10.0379C12.5839 9.44199 12.6176 9.25087 12.6176 7.72188C12.6176 6.19289 12.6176 6.00176 12.5839 5.40591ZM11.572 9.9704C11.5679 10.3272 11.5033 10.6808 11.3809 11.016C11.2911 11.2606 11.147 11.4816 10.9593 11.6624C10.777 11.8482 10.5564 11.9921 10.3129 12.084C9.97766 12.2064 9.62412 12.271 9.2673 12.2751C8.70517 12.3032 8.49718 12.3089 7.01878 12.3089C5.54038 12.3089 5.33239 12.3089 4.77026 12.2751C4.39976 12.2821 4.03083 12.225 3.67973 12.1065C3.44689 12.0098 3.23641 11.8663 3.06139 11.6849C2.87481 11.5043 2.73245 11.2831 2.64541 11.0384C2.50817 10.6984 2.43205 10.3369 2.42056 9.9704C2.42056 9.40827 2.38683 9.20028 2.38683 7.72188C2.38683 6.24348 2.38683 6.03549 2.42056 5.47336C2.42308 5.10857 2.48967 4.74706 2.61731 4.40532C2.71627 4.16805 2.86816 3.95654 3.06139 3.78697C3.23217 3.5937 3.44324 3.44019 3.67973 3.33727C4.02238 3.21363 4.38351 3.149 4.74778 3.14615C5.3099 3.14615 5.51789 3.11242 6.99629 3.11242C8.47469 3.11242 8.68268 3.11242 9.24481 3.14615C9.60163 3.15024 9.95517 3.21486 10.2904 3.33727C10.5458 3.43207 10.7751 3.58621 10.9593 3.78697C11.1435 3.95965 11.2875 4.17076 11.3809 4.40532C11.5058 4.74762 11.5705 5.10898 11.572 5.47336C11.6001 6.03549 11.6058 6.24348 11.6058 7.72188C11.6058 9.20028 11.6001 9.40827 11.572 9.9704ZM6.99629 4.83816C6.42619 4.83927 5.8692 5.00934 5.39572 5.32688C4.92223 5.64442 4.55349 6.09519 4.33609 6.62222C4.11869 7.14924 4.06238 7.72889 4.17429 8.2879C4.28619 8.84692 4.56128 9.36022 4.9648 9.76296C5.36832 10.1657 5.88216 10.4398 6.44139 10.5506C7.00063 10.6614 7.58016 10.604 8.10676 10.3855C8.63337 10.1671 9.08341 9.79751 9.40003 9.3234C9.71665 8.8493 9.88564 8.29199 9.88564 7.72188C9.88638 7.3425 9.81211 6.96672 9.6671 6.61615C9.52209 6.26557 9.30921 5.94713 9.04068 5.67913C8.77216 5.41113 8.4533 5.19886 8.10245 5.05454C7.7516 4.91021 7.37567 4.83667 6.99629 4.83816ZM6.99629 9.59377C6.62607 9.59377 6.26416 9.48398 5.95633 9.2783C5.6485 9.07261 5.40857 8.78026 5.26689 8.43822C5.12521 8.09618 5.08814 7.7198 5.16037 7.35669C5.2326 6.99358 5.41088 6.66004 5.67267 6.39825C5.93445 6.13646 6.26799 5.95818 6.6311 5.88596C6.99422 5.81373 7.37059 5.8508 7.71263 5.99248C8.05468 6.13416 8.34703 6.37408 8.55271 6.68191C8.7584 6.98974 8.86818 7.35165 8.86818 7.72188C8.86818 7.9677 8.81977 8.21111 8.72569 8.43822C8.63162 8.66533 8.49374 8.87168 8.31992 9.04551C8.1461 9.21933 7.93974 9.35721 7.71263 9.45128C7.48553 9.54535 7.24211 9.59377 6.99629 9.59377Z" fill="#004C84"/>
</svg>
