<svg width="39" height="39" viewBox="0 0 39 39" fill="none" xmlns="http://www.w3.org/2000/svg">
<path d="M0.265625 19.2236C0.265625 8.76242 8.74484 0.283203 19.206 0.283203C29.6672 0.283203 38.1464 8.76242 38.1464 19.2236C38.1464 29.6848 29.6672 38.164 19.206 38.164C8.74484 38.164 0.265625 29.6848 0.265625 19.2236Z" fill="url(#paint0_linear_1314_76046)"/>
<path d="M32.3569 16.9799C32.3569 17.6058 32.0663 18.1646 31.6043 18.5297C31.5149 18.6042 31.4851 18.7309 31.5373 18.8352C31.6789 19.1034 31.7534 19.4089 31.7534 19.7219V19.9826C31.7534 20.6085 31.4553 21.1599 31.0008 21.525C30.9114 21.5995 30.8816 21.7262 30.9338 21.8379C31.0679 22.1062 31.1498 22.4042 31.1498 22.7246V22.9779C31.1498 23.6038 30.8518 24.4309 30.3973 24.796C30.3079 24.8705 30.2781 24.9972 30.3302 25.1089C30.4643 25.3697 30.5463 25.6752 30.5463 25.9956C30.5463 27.225 29.533 28.2309 28.3036 28.2309H27.104H24.064H19.8765C18.9228 28.2309 18.0734 27.7689 17.5443 27.0536C17.4922 26.994 17.4177 26.9493 17.3357 26.9493H14.6459C14.5043 26.9493 14.3926 26.8375 14.3926 26.696V16.9724C14.3926 16.8458 14.4745 16.7415 14.5938 16.7191C15.3761 16.5701 15.9126 16.3466 16.6502 16.056C17.6114 15.676 18.2224 14.9011 18.6471 14.007C19.2655 12.7254 19.3326 11.2873 19.4965 9.89401C19.6306 8.70186 19.869 7.22656 21.3741 7.22656C22.0224 7.22656 22.6036 7.60656 22.991 8.11323C23.3487 8.56774 23.4977 9.14146 23.5573 9.73754C23.6169 10.3262 23.5871 10.9372 23.5871 11.4736C23.5871 12.4497 23.5647 13.4779 23.2965 14.4242C23.2518 14.5881 23.3785 14.7446 23.5424 14.7446H25.8745H27.104H30.1216C31.351 14.7446 32.3569 15.7505 32.3569 16.9799Z" fill="white"/>
<path d="M12.8128 27.9479H8.03675C7.92499 27.9479 7.82812 27.8511 7.82812 27.7393V15.8252C7.82812 15.7134 7.92499 15.624 8.03675 15.624H12.8128C12.932 15.624 13.0215 15.7134 13.0215 15.8252V27.7393C13.0215 27.8511 12.932 27.9479 12.8128 27.9479Z" fill="white"/>
<defs>
<linearGradient id="paint0_linear_1314_76046" x1="0.265625" y1="19.2236" x2="38.1464" y2="19.2236" gradientUnits="userSpaceOnUse">
<stop stop-color="#FC2020"/>
<stop offset="1" stop-color="#D535B6"/>
</linearGradient>
</defs>
</svg>
