<svg width="16" height="16" viewBox="0 0 16 16" fill="none" xmlns="http://www.w3.org/2000/svg">
<path fill-rule="evenodd" clip-rule="evenodd" d="M15.7852 7.75928C15.7852 11.9014 12.4273 15.2593 8.28516 15.2593C4.14302 15.2593 0.785156 11.9014 0.785156 7.75928C0.785156 3.61714 4.14302 0.259277 8.28516 0.259277C12.4273 0.259277 15.7852 3.61714 15.7852 7.75928ZM12.4235 6.53022C12.7803 6.10861 12.7277 5.47763 12.3061 5.12089C11.8845 4.76415 11.2535 4.81673 10.8968 5.23834L7.47378 9.28369L5.99226 7.80217C5.60174 7.41165 4.96857 7.41165 4.57805 7.80217C4.18753 8.19269 4.18753 8.82586 4.57805 9.21638L6.82805 11.4664C7.02579 11.6641 7.2973 11.77 7.57671 11.7584C7.85613 11.7468 8.1179 11.6187 8.29854 11.4052L12.4235 6.53022Z" fill="url(#paint0_linear_1314_76095)"/>
<defs>
<linearGradient id="paint0_linear_1314_76095" x1="8.28516" y1="0.259277" x2="8.28516" y2="15.2593" gradientUnits="userSpaceOnUse">
<stop stop-color="#F72334"/>
<stop offset="1" stop-color="#D933A7"/>
</linearGradient>
</defs>
</svg>
