<svg width="30" height="30" viewBox="0 0 30 30" fill="none" xmlns="http://www.w3.org/2000/svg">
<path d="M26.7644 7.3718C26.7016 6.54506 26.343 5.76863 25.7544 5.18471C25.1658 4.6008 24.3865 4.24849 23.5593 4.19231C22.726 4.12821 21.7772 4.0641 20.7772 4.01282V6.66667C20.7772 7.2617 20.5409 7.83237 20.1201 8.25312C19.6994 8.67388 19.1287 8.91026 18.5337 8.91026C17.9386 8.91026 17.368 8.67388 16.9472 8.25312C16.5264 7.83237 16.2901 7.2617 16.2901 6.66667V3.78205H13.0849V6.66667C13.0849 7.2617 12.8486 7.83237 12.4278 8.25312C12.007 8.67388 11.4364 8.91026 10.8413 8.91026C10.2463 8.91026 9.67564 8.67388 9.25489 8.25312C8.83413 7.83237 8.59776 7.2617 8.59776 6.66667V4.01282C7.59776 4.01282 6.64904 4.12821 5.80288 4.19231C4.98101 4.24735 4.20683 4.59801 3.6234 5.17949C3.03451 5.76564 2.67518 6.54343 2.61058 7.3718C2.41827 9.74359 2.1875 13.1154 2.1875 15.641C2.1875 18.1667 2.41827 21.5385 2.61058 23.9231C2.67595 24.7455 3.03398 25.5172 3.61969 26.0982C4.2054 26.6792 4.97998 27.031 5.80288 27.0897C7.89263 27.2436 11.8029 27.5 14.6875 27.5C17.5721 27.5 21.4824 27.2436 23.5593 27.0897C24.3845 27.0339 25.1621 26.6835 25.7505 26.1022C26.3388 25.5209 26.6987 24.7475 26.7644 23.9231C26.9567 21.5385 27.1875 18.1667 27.1875 15.641C27.1875 13.1154 26.9567 9.74359 26.7644 7.3718ZM14.6875 19.8077H9.5593C9.30428 19.8077 9.05971 19.7064 8.87938 19.5261C8.69906 19.3457 8.59776 19.1012 8.59776 18.8462C8.59776 18.5911 8.69906 18.3466 8.87938 18.1662C9.05971 17.9859 9.30428 17.8846 9.5593 17.8846H14.6875C14.9425 17.8846 15.1871 17.9859 15.3674 18.1662C15.5477 18.3466 15.649 18.5911 15.649 18.8462C15.649 19.1012 15.5477 19.3457 15.3674 19.5261C15.1871 19.7064 14.9425 19.8077 14.6875 19.8077ZM19.8157 14.6795H9.5593C9.30428 14.6795 9.05971 14.5782 8.87938 14.3979C8.69906 14.2175 8.59776 13.973 8.59776 13.7179C8.59776 13.4629 8.69906 13.2184 8.87938 13.038C9.05971 12.8577 9.30428 12.7564 9.5593 12.7564H19.8157C20.0707 12.7564 20.3153 12.8577 20.4956 13.038C20.6759 13.2184 20.7772 13.4629 20.7772 13.7179C20.7772 13.973 20.6759 14.2175 20.4956 14.3979C20.3153 14.5782 20.0707 14.6795 19.8157 14.6795Z" fill="#1AA7C6"/>
<path d="M11.8029 3.46154V6.66667C11.8029 6.92168 11.7016 7.16625 11.5213 7.34658C11.3409 7.5269 11.0964 7.62821 10.8413 7.62821C10.5863 7.62821 10.3418 7.5269 10.1614 7.34658C9.98111 7.16625 9.87981 6.92168 9.87981 6.66667V3.46154C9.87981 3.20652 9.98111 2.96195 10.1614 2.78163C10.3418 2.6013 10.5863 2.5 10.8413 2.5C11.0964 2.5 11.3409 2.6013 11.5213 2.78163C11.7016 2.96195 11.8029 3.20652 11.8029 3.46154Z" fill="#1AA7C6"/>
<path d="M19.4952 3.46154V6.66667C19.4952 6.92168 19.3939 7.16625 19.2136 7.34658C19.0332 7.5269 18.7887 7.62821 18.5337 7.62821C18.2786 7.62821 18.0341 7.5269 17.8537 7.34658C17.6734 7.16625 17.5721 6.92168 17.5721 6.66667V3.46154C17.5721 3.20652 17.6734 2.96195 17.8537 2.78163C18.0341 2.6013 18.2786 2.5 18.5337 2.5C18.7887 2.5 19.0332 2.6013 19.2136 2.78163C19.3939 2.96195 19.4952 3.20652 19.4952 3.46154Z" fill="#1AA7C6"/>
</svg>
