<svg width="16" height="10" viewBox="0 0 16 10" fill="none" xmlns="http://www.w3.org/2000/svg">
<path d="M9.77569 1.57824C9.75084 1.5673 9.72363 1.56278 9.69658 1.5651C9.66953 1.56742 9.64349 1.5765 9.62087 1.59151C9.59824 1.60652 9.57975 1.62698 9.56709 1.651C9.55444 1.67502 9.54802 1.70184 9.54844 1.72899V2.85736C9.54844 3.00655 9.48917 3.14962 9.38368 3.25511C9.2782 3.3606 9.13512 3.41986 8.98594 3.41986H1.89844V6.68236H8.98594C9.13512 6.68236 9.2782 6.74163 9.38368 6.84712C9.48917 6.9526 9.54844 7.09568 9.54844 7.24486V8.37324C9.54844 8.49474 9.67219 8.57124 9.77569 8.52399L14.2577 5.22436C14.2729 5.21309 14.2887 5.20258 14.3049 5.19286C14.3294 5.17816 14.3496 5.15738 14.3637 5.13254C14.3777 5.10771 14.3851 5.07965 14.3851 5.05111C14.3851 5.02258 14.3777 4.99452 14.3637 4.96968C14.3496 4.94484 14.3294 4.92406 14.3049 4.90936C14.2887 4.89965 14.2729 4.88914 14.2577 4.87786L9.77569 1.57824ZM8.42344 1.72899C8.42333 1.49732 8.48576 1.26991 8.60415 1.07077C8.72253 0.871624 8.89247 0.708127 9.09604 0.597529C9.29961 0.486931 9.52926 0.433333 9.76075 0.44239C9.99225 0.451447 10.217 0.522824 10.4113 0.648989L14.9046 3.95649C15.0903 4.07244 15.2435 4.23376 15.3497 4.42526C15.4559 4.61676 15.5117 4.83213 15.5117 5.05111C15.5117 5.27009 15.4559 5.48547 15.3497 5.67697C15.2435 5.86847 15.0903 6.02979 14.9046 6.14574L10.4113 9.45324C10.217 9.5794 9.99225 9.65078 9.76075 9.65984C9.52926 9.66889 9.29961 9.6153 9.09604 9.5047C8.89247 9.3941 8.72253 9.2306 8.60415 9.03146C8.48576 8.83232 8.42333 8.60491 8.42344 8.37324V7.80736H1.33594C1.18675 7.80736 1.04368 7.7481 0.93819 7.64261C0.832701 7.53712 0.773438 7.39405 0.773438 7.24486V2.85736C0.773438 2.70818 0.832701 2.56511 0.93819 2.45962C1.04368 2.35413 1.18675 2.29486 1.33594 2.29486H8.42344V1.72899Z" fill="#555555"/>
</svg>
