<svg width="31" height="31" viewBox="0 0 31 31" fill="none" xmlns="http://www.w3.org/2000/svg">
<path fill-rule="evenodd" clip-rule="evenodd" d="M19.9947 0.911312L20.892 2.99808C21.1589 3.61793 21.7767 3.97503 22.4471 3.89656L24.7026 3.6297C25.1741 3.57444 25.6038 3.72287 25.9406 4.05942C26.2762 4.39507 26.4256 4.82478 26.3703 5.29738L26.1034 7.55288C26.0249 8.22326 26.3818 8.84132 27.0019 9.10799L29.0887 10.0053C29.5252 10.1925 29.8232 10.537 29.9454 10.9958C30.0686 11.4546 29.9822 11.901 29.698 12.2822L28.3398 14.1021C27.9353 14.6426 27.9353 15.3574 28.3398 15.8979L29.698 17.7178C29.9822 18.099 30.0677 18.5454 29.9454 19.0042C29.8223 19.463 29.5254 19.8075 29.0887 19.9947L27.0019 20.892C26.3821 21.1589 26.025 21.7767 26.1034 22.4471L26.3703 24.7026C26.4256 25.1741 26.2771 25.6037 25.9406 25.9406C25.6049 26.2762 25.1752 26.4256 24.7026 26.3703L22.4471 26.1034C21.7767 26.0249 21.1587 26.3818 20.892 27.0019L19.9947 29.0887C19.8075 29.5252 19.463 29.8232 19.0042 29.9454C18.5454 30.0686 18.099 29.9822 17.7178 29.698L15.8979 28.3398C15.3574 27.9353 14.6426 27.9353 14.1021 28.3398L12.2822 29.698C11.901 29.9822 11.4546 30.0677 10.9958 29.9454C10.537 29.8222 10.1925 29.5254 10.0053 29.0887L9.10799 27.0019C8.84114 26.3821 8.22332 26.025 7.55289 26.1034L5.29738 26.3703C4.82593 26.4256 4.39625 26.2771 4.05942 25.9406C3.72377 25.6049 3.57444 25.1752 3.62971 24.7026L3.89656 22.4471C3.97506 21.7767 3.6182 21.1587 2.99808 20.892L0.911312 19.9947C0.474832 19.8075 0.176839 19.463 0.0545903 19.0042C-0.0685706 18.5454 0.0178219 18.099 0.302044 17.7178L1.66023 15.8979C2.06468 15.3574 2.06468 14.6426 1.66023 14.1021L0.302044 12.2822C0.0178231 11.901 -0.067664 11.4546 0.0545903 10.9958C0.177751 10.537 0.474601 10.1925 0.911312 10.0053L2.99808 9.10799C3.61793 8.84114 3.97503 8.22332 3.89656 7.55288L3.62971 5.29738C3.57444 4.82593 3.72287 4.39625 4.05942 4.05942C4.39507 3.72377 4.82478 3.57444 5.29738 3.6297L7.55289 3.89656C8.22326 3.97506 8.84132 3.6182 9.10799 2.99808L10.0053 0.911312C10.1925 0.474832 10.537 0.176839 10.9958 0.0545903C11.4546 -0.0685707 11.901 0.0178222 12.2822 0.302044L14.1021 1.66023C14.6426 2.06468 15.3574 2.06468 15.8979 1.66023L17.7178 0.302044C18.099 0.0178233 18.5454 -0.0676641 19.0042 0.0545903C19.463 0.177751 19.8075 0.474601 19.9947 0.911312Z" fill="white"/>
<path fill-rule="evenodd" clip-rule="evenodd" d="M19.6617 1.85056L20.4992 3.79821C20.7483 4.37674 21.3249 4.71003 21.9506 4.63679L24.0558 4.38772C24.4958 4.33614 24.8968 4.47468 25.2112 4.78879C25.5245 5.10206 25.6639 5.50313 25.6123 5.94422L25.3632 8.04936C25.29 8.67504 25.623 9.2519 26.2018 9.50079L28.1494 10.3383C28.5568 10.513 28.835 10.8345 28.9491 11.2627C29.064 11.6909 28.9834 12.1076 28.7181 12.4634L27.4505 14.162C27.073 14.6664 27.073 15.3336 27.4505 15.838L28.7181 17.5366C28.9834 17.8924 29.0632 18.3091 28.9491 18.7373C28.8341 19.1655 28.557 19.487 28.1494 19.6617L26.2018 20.4992C25.6233 20.7483 25.29 21.3249 25.3632 21.9506L25.6123 24.0558C25.6639 24.4958 25.5253 24.8968 25.2112 25.2112C24.8979 25.5245 24.4969 25.6639 24.0558 25.6123L21.9506 25.3632C21.325 25.2899 20.7481 25.623 20.4992 26.2018L19.6617 28.1494C19.487 28.5568 19.1655 28.835 18.7373 28.949C18.3091 29.064 17.8924 28.9834 17.5366 28.7181L15.838 27.4504C15.3336 27.073 14.6664 27.073 14.162 27.4504L12.4634 28.7181C12.1076 28.9834 11.6909 29.0632 11.2627 28.949C10.8345 28.8341 10.513 28.557 10.3383 28.1494L9.50079 26.2018C9.25173 25.6233 8.6751 25.29 8.04936 25.3632L5.94422 25.6123C5.5042 25.6639 5.10317 25.5253 4.78879 25.2112C4.47552 24.8979 4.33615 24.4969 4.38773 24.0558L4.63679 21.9506C4.71005 21.325 4.37699 20.7481 3.79821 20.4992L1.85056 19.6617C1.44318 19.487 1.16505 19.1655 1.05095 18.7373C0.936001 18.3091 1.01663 17.8924 1.28191 17.5366L2.54955 15.838C2.92704 15.3336 2.92704 14.6664 2.54955 14.162L1.28191 12.4634C1.01663 12.1076 0.936847 11.6909 1.05095 11.2627C1.1659 10.8345 1.44296 10.513 1.85056 10.3383L3.79821 9.50079C4.37674 9.25173 4.71003 8.6751 4.63679 8.04936L4.38773 5.94422C4.33614 5.5042 4.47468 5.10317 4.78879 4.78879C5.10206 4.47552 5.50313 4.33615 5.94422 4.38772L8.04936 4.63679C8.67504 4.71005 9.2519 4.37699 9.50079 3.79821L10.3383 1.85056C10.513 1.44318 10.8345 1.16505 11.2627 1.05095C11.6909 0.936001 12.1076 1.01663 12.4634 1.28191L14.162 2.54955C14.6664 2.92704 15.3336 2.92704 15.838 2.54955L17.5366 1.28191C17.8924 1.01664 18.3091 0.936847 18.7373 1.05095C19.1655 1.1659 19.487 1.44296 19.6617 1.85056Z" fill="url(#paint0_linear_3704_66072)"/>
<path fill-rule="evenodd" clip-rule="evenodd" d="M8.59678 15.6252C8.30107 15.3295 8.30107 14.8492 8.59678 14.5535C8.89249 14.2578 9.37274 14.2578 9.66845 14.5535L13.3084 18.1934L20.8127 10.6891C21.1084 10.3934 21.5887 10.3934 21.8844 10.6891C22.1801 10.9848 22.1801 11.465 21.8844 11.7607L13.8448 19.8014C13.5491 20.0972 13.0689 20.0972 12.7732 19.8014L8.59678 15.6252Z" fill="white"/>
<defs>
<linearGradient id="paint0_linear_3704_66072" x1="1.87278" y1="1.00001" x2="29.1663" y2="2.079" gradientUnits="userSpaceOnUse">
<stop stop-color="#025999"/>
<stop offset="1" stop-color="#0093FF"/>
</linearGradient>
</defs>
</svg>
