<svg width="16" height="17" viewBox="0 0 16 17" fill="none" xmlns="http://www.w3.org/2000/svg">
<path d="M11.2034 2.4999C8.71837 0.0148529 4.68827 0.0148519 2.20322 2.4999C-0.281824 4.98495 -0.281824 9.01505 2.20322 11.5001C4.40465 13.7015 7.81889 13.95 10.2958 12.251L13.394 15.7166C13.9208 16.3081 14.8365 16.3324 15.3956 15.7733L15.4766 15.6923C16.0358 15.1331 16.0115 14.2174 15.4199 13.6907L11.9543 10.5925C13.6561 8.11287 13.4049 4.70133 11.2034 2.4999ZM9.65837 9.95505C8.02688 11.5865 5.37976 11.5865 3.74828 9.95505C2.11679 8.32356 2.11679 5.67644 3.74828 4.04495C5.37976 2.41346 8.02688 2.41346 9.65837 4.04495C11.2926 5.67914 11.2899 8.32356 9.65837 9.95505Z" fill="#FEFDFE"/>
</svg>
