<svg width="15" height="15" viewBox="0 0 15 15" fill="none" xmlns="http://www.w3.org/2000/svg">
<path d="M14.2269 1.93009L10.1062 13.8342C10.0674 13.9463 9.99415 14.0433 9.89693 14.1113C9.7997 14.1792 9.68348 14.2147 9.56488 14.2127C9.44627 14.2106 9.33135 14.1711 9.23655 14.0998C9.14174 14.0285 9.07191 13.929 9.03702 13.8157L7.38077 8.43284C7.35379 8.34515 7.30577 8.26539 7.24089 8.20052C7.17602 8.13564 7.09626 8.08762 7.00857 8.06064L1.62574 6.40439C1.51237 6.3695 1.41292 6.29966 1.34162 6.20486C1.27032 6.11006 1.23081 5.99514 1.22875 5.87653C1.22669 5.75793 1.26218 5.64171 1.33014 5.54448C1.39811 5.44726 1.49507 5.37401 1.60717 5.33521L13.5113 1.21454C13.6111 1.18001 13.7185 1.17425 13.8214 1.19791C13.9243 1.22157 14.0184 1.2737 14.0931 1.34835C14.1677 1.42299 14.2198 1.51713 14.2435 1.62001C14.2672 1.72288 14.2614 1.83034 14.2269 1.93009V1.93009Z" stroke="#555555" stroke-width="1.2" stroke-linecap="round" stroke-linejoin="round"/>
</svg>
