<svg width="16" height="15" viewBox="0 0 16 15" fill="none" xmlns="http://www.w3.org/2000/svg">
<path d="M14.4573 1.71916L10.3367 13.6233C10.2979 13.7354 10.2246 13.8324 10.1274 13.9003C10.0302 13.9683 9.91395 14.0038 9.79535 14.0017C9.67674 13.9997 9.56182 13.9602 9.46702 13.8889C9.37221 13.8176 9.30238 13.7181 9.26749 13.6047L7.61124 8.2219C7.58426 8.13421 7.53623 8.05446 7.47136 7.98958C7.40648 7.9247 7.32673 7.87668 7.23904 7.8497L1.85621 6.19345C1.74283 6.15856 1.64339 6.08873 1.57209 5.99392C1.50079 5.89912 1.46128 5.7842 1.45922 5.6656C1.45716 5.54699 1.49265 5.43077 1.56061 5.33354C1.62858 5.23632 1.72554 5.16307 1.83764 5.12427L13.7418 1.0036C13.8415 0.969071 13.949 0.963308 14.0519 0.98697C14.1547 1.01063 14.2489 1.06277 14.3235 1.13741C14.3982 1.21205 14.4503 1.30619 14.474 1.40907C14.4976 1.51194 14.4919 1.6194 14.4573 1.71916V1.71916Z" stroke="#555555" stroke-width="1.2" stroke-linecap="round" stroke-linejoin="round"/>
</svg>
