<svg width="18" height="18" viewBox="0 0 18 18" fill="none" xmlns="http://www.w3.org/2000/svg">
<path fill-rule="evenodd" clip-rule="evenodd" d="M4.9964 17.957C2.25638 17.957 0.0351562 15.7185 0.0351562 12.957V5.04033C0.0351562 2.27892 2.25638 0.0403328 4.9964 0.0403328H12.8517C15.5917 0.0403328 17.8129 2.27892 17.8129 5.04033V12.957C17.8129 15.7185 15.5917 17.957 12.8517 17.957H4.9964ZM6.21894 13.6842C6.00238 13.8909 5.99314 14.2355 6.1983 14.4537C6.40346 14.672 6.74533 14.6813 6.96189 14.4745L11.1795 10.4477C11.5916 10.0542 11.7979 9.52533 11.7979 8.99867C11.7979 8.472 11.5916 7.94325 11.1795 7.54975L6.96189 3.52292C6.74533 3.31608 6.40346 3.32541 6.1983 3.54366C5.99314 3.76191 6.00238 4.1065 6.21894 4.31325L10.4366 8.34008C10.6241 8.51908 10.7176 8.75783 10.7176 8.99867C10.7176 9.23958 10.6241 9.47825 10.4366 9.65733L6.21894 13.6842Z" fill="#D5251E"/>
</svg>
