<svg width="19" height="19" viewBox="0 0 19 19" fill="none" xmlns="http://www.w3.org/2000/svg">
<path d="M15.2734 4.3125L2.89844 4.31251" stroke="#555555" stroke-width="1.2" stroke-linecap="round" stroke-linejoin="round"/>
<path d="M7.39844 7.6875V12.1875" stroke="#555555" stroke-width="1.2" stroke-linecap="round" stroke-linejoin="round"/>
<path d="M10.7734 7.6875V12.1875" stroke="#555555" stroke-width="1.2" stroke-linecap="round" stroke-linejoin="round"/>
<path d="M14.1484 4.3125V15C14.1484 15.1492 14.0892 15.2923 13.9837 15.3977C13.8782 15.5032 13.7351 15.5625 13.5859 15.5625H4.58594C4.43675 15.5625 4.29368 15.5032 4.18819 15.3977C4.0827 15.2923 4.02344 15.1492 4.02344 15V4.3125" stroke="#555555" stroke-width="1.2" stroke-linecap="round" stroke-linejoin="round"/>
<path d="M11.8984 4.3125V3.1875C11.8984 2.88913 11.7799 2.60298 11.5689 2.392C11.358 2.18103 11.0718 2.0625 10.7734 2.0625H7.39844C7.10007 2.0625 6.81392 2.18103 6.60294 2.392C6.39196 2.60298 6.27344 2.88913 6.27344 3.1875V4.3125" stroke="#555555" stroke-width="1.2" stroke-linecap="round" stroke-linejoin="round"/>
</svg>
