<svg width="19" height="19" viewBox="0 0 19 19" fill="none" xmlns="http://www.w3.org/2000/svg">
<path d="M16.043 4.52344L3.66797 4.52344" stroke="#555555" stroke-width="1.2" stroke-linecap="round" stroke-linejoin="round"/>
<path d="M8.16797 7.89844V12.3984" stroke="#555555" stroke-width="1.2" stroke-linecap="round" stroke-linejoin="round"/>
<path d="M11.543 7.89844V12.3984" stroke="#555555" stroke-width="1.2" stroke-linecap="round" stroke-linejoin="round"/>
<path d="M14.918 4.52344V15.2109C14.918 15.3601 14.8587 15.5032 14.7532 15.6087C14.6477 15.7142 14.5047 15.7734 14.3555 15.7734H5.35547C5.20628 15.7734 5.06321 15.7142 4.95772 15.6087C4.85223 15.5032 4.79297 15.3601 4.79297 15.2109V4.52344" stroke="#555555" stroke-width="1.2" stroke-linecap="round" stroke-linejoin="round"/>
<path d="M12.668 4.52344V3.39844C12.668 3.10007 12.5494 2.81392 12.3385 2.60294C12.1275 2.39196 11.8413 2.27344 11.543 2.27344H8.16797C7.8696 2.27344 7.58345 2.39196 7.37247 2.60294C7.1615 2.81392 7.04297 3.10007 7.04297 3.39844V4.52344" stroke="#555555" stroke-width="1.2" stroke-linecap="round" stroke-linejoin="round"/>
</svg>
