<svg width="38" height="38" viewBox="0 0 38 38" fill="none" xmlns="http://www.w3.org/2000/svg">
<rect x="0.742188" y="0.0820312" width="37.0473" height="37.0473" rx="18.5236" fill="#1D9BF0"/>
<path d="M15.8767 28.3776C24.092 28.3776 28.584 21.5701 28.584 15.6704C28.584 15.4759 28.584 15.2814 28.5747 15.0961C29.4453 14.4663 30.2048 13.6791 30.8068 12.7807C30.0103 13.1326 29.1489 13.3734 28.2413 13.4846C29.1674 12.9289 29.8713 12.0582 30.2048 11.0117C29.3434 11.5211 28.3895 11.8915 27.3707 12.0953C26.5556 11.2247 25.3979 10.6875 24.1105 10.6875C21.6469 10.6875 19.6463 12.6881 19.6463 15.1517C19.6463 15.5036 19.6833 15.8463 19.7667 16.1705C16.0527 15.9853 12.7648 14.207 10.5605 11.5025C10.1807 12.1601 9.95844 12.9289 9.95844 13.7439C9.95844 15.2906 10.7457 16.6614 11.9497 17.4579C11.218 17.4394 10.5327 17.2356 9.93065 16.9022C9.93065 16.9207 9.93065 16.9392 9.93065 16.9578C9.93065 19.125 11.4681 20.9218 13.515 21.3386C13.1445 21.4405 12.7462 21.496 12.3387 21.496C12.0516 21.496 11.7738 21.4683 11.4959 21.4127C12.0609 23.191 13.7095 24.4783 15.6637 24.5154C14.1355 25.7102 12.2091 26.4233 10.1159 26.4233C9.75468 26.4233 9.40273 26.4048 9.05078 26.3585C11.005 27.6366 13.3575 28.3776 15.8767 28.3776Z" fill="white"/>
</svg>
