<svg width="14" height="14" viewBox="0 0 14 14" fill="none" xmlns="http://www.w3.org/2000/svg">
<g clip-path="url(#clip0_1432_68106)">
<path d="M12.6029 3.89173C12.596 3.52912 12.5894 3.18657 12.5894 2.85518C12.5894 2.59555 12.379 2.38507 12.1193 2.38507C10.1088 2.38507 8.57812 1.80728 7.30219 0.566704C7.11966 0.389192 6.8292 0.389255 6.64674 0.566704C5.37093 1.80728 3.84046 2.38507 1.8301 2.38507C1.57048 2.38507 1.36 2.59555 1.36 2.85518C1.36 3.18663 1.35348 3.52931 1.34652 3.89198C1.28209 7.26645 1.19383 11.888 6.82049 13.8383C6.87038 13.8556 6.92241 13.8642 6.97443 13.8642C7.02646 13.8642 7.07854 13.8556 7.12838 13.8383C12.7555 11.8879 12.6673 7.26627 12.6029 3.89173ZM6.97449 12.8952C2.1489 11.1423 2.22186 7.30212 2.28661 3.9099C2.29049 3.70632 2.29425 3.509 2.29689 3.31557C4.17981 3.23609 5.68553 2.6655 6.97449 1.54264C8.26359 2.6655 9.76955 3.23615 11.6526 3.31557C11.6552 3.50894 11.659 3.70613 11.6629 3.90959C11.7276 7.30193 11.8005 11.1422 6.97449 12.8952Z" fill="#fff"/>
<path d="M8.59243 5.51559L6.32345 7.78445L5.35522 6.81622C5.17163 6.63269 4.87396 6.63269 4.69043 6.81622C4.50684 6.99987 4.50684 7.29748 4.69043 7.48107L5.99105 8.78169C6.08282 8.87346 6.20316 8.91934 6.32345 8.91934C6.44373 8.91934 6.56408 8.87346 6.65584 8.78169L9.25716 6.18045C9.44081 5.99685 9.44081 5.69918 9.25722 5.51565C9.07369 5.33206 8.77602 5.332 8.59243 5.51559Z" fill="#fff"/>
</g>
<defs>
<clipPath id="clip0_1432_68106">
<rect width="13.4306" height="13.4306" fill="white" transform="translate(0.259766 0.433594)"/>
</clipPath>
</defs>
</svg>
