<svg width="38" height="38" viewBox="0 0 38 38" fill="none" xmlns="http://www.w3.org/2000/svg">
<rect x="0.472656" y="0.0820312" width="37.0473" height="37.0473" rx="18.5236" fill="#FF0000"/>
<path d="M31.6853 12.2431C31.3801 11.1095 30.4863 10.2157 29.3527 9.91054C27.2818 9.34375 18.998 9.34375 18.998 9.34375C18.998 9.34375 10.7141 9.34375 8.64317 9.88874C7.53139 10.1939 6.61581 11.1095 6.31061 12.2431C5.76562 14.314 5.76562 18.6086 5.76562 18.6086C5.76562 18.6086 5.76562 22.9249 6.31061 24.974C6.61581 26.1076 7.50959 27.0014 8.64317 27.3066C10.7359 27.8734 18.998 27.8734 18.998 27.8734C18.998 27.8734 27.2818 27.8734 29.3527 27.3284C30.4863 27.0232 31.3801 26.1294 31.6853 24.9958C32.2303 22.9249 32.2303 18.6304 32.2303 18.6304C32.2303 18.6304 32.2521 14.314 31.6853 12.2431Z" fill="white"/>
<path d="M16.3594 22.5757L23.248 18.6081L16.3594 14.6406V22.5757Z" fill="#FF0000"/>
</svg>
