<svg width="39" height="39" viewBox="0 0 39 39" fill="none" xmlns="http://www.w3.org/2000/svg">
<path d="M0.267578 19.2236C0.267578 8.76242 8.74679 0.283203 19.208 0.283203C29.6691 0.283203 38.1484 8.76242 38.1484 19.2236C38.1484 29.6848 29.6691 38.164 19.208 38.164C8.74679 38.164 0.267578 29.6848 0.267578 19.2236Z" fill="#393939"/>
<path d="M32.3588 20.9713C32.3588 20.3454 32.0683 19.7866 31.6063 19.4215C31.5169 19.347 31.4871 19.2203 31.5392 19.116C31.6808 18.8477 31.7553 18.5423 31.7553 18.2293V17.9685C31.7553 17.3426 31.4573 16.7913 31.0028 16.4262C30.9134 16.3517 30.8836 16.225 30.9357 16.1132C31.0698 15.845 31.1518 15.547 31.1518 15.2266V14.9732C31.1518 14.3474 30.8537 13.5203 30.3992 13.1552C30.3098 13.0807 30.28 12.954 30.3322 12.8423C30.4663 12.5815 30.5483 12.276 30.5483 11.9556C30.5483 10.7262 29.5349 9.7203 28.3055 9.7203H27.1059H24.0659H19.8785C18.9247 9.7203 18.0753 10.1823 17.5463 10.8976C17.4941 10.9572 17.4196 11.0019 17.3377 11.0019H14.6479C14.5063 11.0019 14.3945 11.1136 14.3945 11.2552V20.9787C14.3945 21.1054 14.4765 21.2097 14.5957 21.2321C15.3781 21.3811 15.9145 21.6046 16.6522 21.8952C17.6134 22.2752 18.2243 23.0501 18.649 23.9442C19.2675 25.2258 19.3345 26.6638 19.4985 28.0572C19.6326 29.2493 19.871 30.7246 21.3761 30.7246C22.0243 30.7246 22.6055 30.3446 22.993 29.8379C23.3506 29.3834 23.4996 28.8097 23.5592 28.2136C23.6188 27.625 23.589 27.014 23.589 26.4776C23.589 25.5015 23.5667 24.4732 23.2985 23.527C23.2537 23.363 23.3804 23.2066 23.5443 23.2066H25.8765H27.1059H30.1236C31.353 23.2066 32.3588 22.2007 32.3588 20.9713Z" fill="white"/>
<path d="M12.8128 10.0032H8.03675C7.92499 10.0032 7.82812 10.1001 7.82812 10.2119V22.126C7.82812 22.2377 7.92499 22.3271 8.03675 22.3271H12.8128C12.932 22.3271 13.0215 22.2377 13.0215 22.126V10.2119C13.0215 10.1001 12.932 10.0032 12.8128 10.0032Z" fill="white"/>
</svg>
