<svg width="26" height="26" viewBox="0 0 26 26" fill="none" xmlns="http://www.w3.org/2000/svg">
<g clip-path="url(#clip0_2250_8289)">
<path d="M5.57124 13.3628C4.87422 12.6225 4.5 11.7922 4.5 10.4462C4.5 8.0777 6.16268 5.95485 8.58058 4.90527L9.18488 5.83778C6.92804 7.05857 6.48683 8.64276 6.31088 9.64158C6.67428 9.45346 7.15001 9.38782 7.61626 9.43113C8.83705 9.54414 9.79934 10.5463 9.79934 11.7922C9.79934 12.4203 9.5498 13.0228 9.10562 13.467C8.66144 13.9111 8.05901 14.1607 7.43084 14.1607C6.70473 14.1607 6.01042 13.8291 5.57124 13.3628ZM12.3384 13.3628C11.6413 12.6225 11.2671 11.7922 11.2671 10.4462C11.2671 8.0777 12.9298 5.95485 15.3477 4.90527L15.952 5.83778C13.6952 7.05857 13.254 8.64276 13.078 9.64158C13.4414 9.45346 13.9171 9.38782 14.3834 9.43113C15.6042 9.54414 16.5665 10.5463 16.5665 11.7922C16.5665 12.4203 16.3169 13.0228 15.8727 13.467C15.4286 13.9111 14.8261 14.1607 14.198 14.1607C13.4719 14.1607 12.7775 13.8291 12.3384 13.3628Z" fill="#004C84"/>
<path d="M21.0448 15.5612C21.0914 15.5612 21.1288 15.5799 21.1568 15.6172C21.1941 15.6452 21.2128 15.6826 21.2128 15.7292V16.7932C21.2128 16.8399 21.1941 16.8819 21.1568 16.9192C21.1288 16.9472 21.0914 16.9612 21.0448 16.9612H19.0008C18.9541 16.9612 18.9308 16.9846 18.9308 17.0312V19.0472C18.9308 19.0939 18.9121 19.1359 18.8748 19.1732C18.8468 19.2012 18.8094 19.2152 18.7628 19.2152H17.7128C17.6661 19.2152 17.6241 19.2012 17.5868 19.1732C17.5588 19.1359 17.5448 19.0939 17.5448 19.0472V17.0312C17.5448 16.9846 17.5214 16.9612 17.4748 16.9612H15.4168C15.3701 16.9612 15.3281 16.9472 15.2908 16.9192C15.2628 16.8819 15.2488 16.8399 15.2488 16.7932V15.7292C15.2488 15.6826 15.2628 15.6452 15.2908 15.6172C15.3281 15.5799 15.3701 15.5612 15.4168 15.5612H17.4748C17.5214 15.5612 17.5448 15.5379 17.5448 15.4912V13.4192C17.5448 13.3726 17.5588 13.3352 17.5868 13.3072C17.6241 13.2699 17.6661 13.2512 17.7128 13.2512H18.7628C18.8094 13.2512 18.8468 13.2699 18.8748 13.3072C18.9121 13.3352 18.9308 13.3726 18.9308 13.4192V15.4912C18.9308 15.5379 18.9541 15.5612 19.0008 15.5612H21.0448Z" fill="#004C84"/>
</g>
<defs>
<clipPath id="clip0_2250_8289">
<rect width="25.0628" height="25.0628" fill="white" transform="translate(0.841797)"/>
</clipPath>
</defs>
</svg>
