<svg width="22" height="22" viewBox="0 0 22 22" fill="none" xmlns="http://www.w3.org/2000/svg">
<g clip-path="url(#clip0_1966_10621)">
<path d="M9.99782 0.530273H8.97205V3.60757L5.89475 10.7879V18.9941C5.89475 19.5382 6.1109 20.06 6.49563 20.4447C6.88037 20.8295 7.40219 21.0456 7.94629 21.0456H16.1524C17.2808 21.0456 18.5219 20.184 18.922 19.1172L21.2812 12.8395V10.7879C21.2812 10.2438 21.0651 9.72202 20.6804 9.33729C20.2956 8.95255 19.7738 8.73641 19.2297 8.73641H12.0494V2.58181C12.0494 2.03771 11.8332 1.51589 11.4485 1.13115C11.0637 0.746417 10.5419 0.530273 9.99782 0.530273V0.530273ZM3.84322 10.7879H0.765921V21.0456H3.84322V10.7879Z" fill="#D5251E"/>
</g>
<defs>
<clipPath id="clip0_1966_10621">
<rect width="20.5153" height="20.5153" fill="white" transform="matrix(-1 0 0 1 21.2812 0.530273)"/>
</clipPath>
</defs>
</svg>
