<svg width="85" height="87" viewBox="0 0 85 87" fill="none" xmlns="http://www.w3.org/2000/svg">
<path d="M83.5936 48.7267L81.9767 46.5122C80.641 44.6844 80.6234 42.2063 81.924 40.3433L83.5057 38.1113C85.3335 35.5101 84.4899 31.9072 81.6779 30.3958L79.2701 29.0952C77.2665 28.0231 76.1769 25.7911 76.546 23.559L77.0029 20.8525C77.5302 17.7241 75.1927 14.8242 72.0116 14.7012L69.2698 14.5781C67.0026 14.4903 65.0518 12.9436 64.4191 10.7643L63.6634 8.12805C62.7846 5.06997 59.4277 3.48821 56.4927 4.75362L53.9794 5.84328C51.888 6.73961 49.4802 6.21236 47.9512 4.50757L46.1233 2.46885C43.9968 0.0962027 40.2884 0.131353 38.197 2.52157L36.4043 4.59544C34.9104 6.30023 32.5026 6.88021 30.4112 6.01903L27.8803 4.9821C24.9453 3.76941 21.606 5.4039 20.7624 8.47955L20.0418 11.1158C19.4618 13.3303 17.5461 14.8945 15.2789 15.0175L12.5372 15.1757C9.35611 15.3514 7.07134 18.2865 7.65132 21.3973L8.14343 24.0863C8.54766 26.3183 7.49315 28.568 5.50715 29.6576L3.11693 30.9933C0.340058 32.5399 -0.468399 36.1604 1.41214 38.7264L3.02906 40.9409C4.36477 42.7687 4.38234 45.2468 3.08178 47.1098L1.50002 49.3418C-0.327798 51.9429 0.51581 55.5458 3.32784 57.0573L5.73563 58.3579C7.7392 59.4299 8.82886 61.662 8.45978 63.894L7.98525 66.583C7.458 69.7114 9.79549 72.6113 12.9766 72.7343L15.7183 72.8574C17.9855 72.9452 19.9364 74.4919 20.5691 76.6712L21.3248 79.3074C22.2036 82.3655 25.5604 83.9473 28.4955 82.6819L31.0087 81.5922C33.1002 80.6959 35.5079 81.2231 37.037 82.9103L38.8648 84.9491C40.9914 87.3217 44.6998 87.2866 46.7912 84.8963L48.5839 82.8225C50.0778 81.1177 52.4856 80.5377 54.577 81.3989L57.1078 82.4358C60.0429 83.6485 63.3822 82.014 64.2258 78.9384L64.9464 76.3021C65.5439 74.1228 67.4772 72.5586 69.7444 72.418L72.4861 72.2598C75.6672 72.0841 77.952 69.149 77.372 66.0382L76.8799 63.3492C76.4756 61.1171 77.5302 58.8675 79.5162 57.7779L81.9064 56.4422C84.6657 54.9307 85.4566 51.2926 83.5936 48.7267ZM42.5029 71.4865C27.1773 71.4865 14.7517 59.0609 14.7517 43.7353C14.7517 28.4098 27.1773 15.9841 42.5029 15.9841C57.8284 15.9841 70.254 28.4098 70.254 43.7353C70.254 59.0609 57.8284 71.4865 42.5029 71.4865Z" fill="url(#paint0_linear_1272_80115)"/>
<path d="M41.4303 42.0133C40.0615 43.3721 37.8503 43.3641 36.4914 41.9955C35.0326 40.5192 32.6424 40.5192 31.1661 41.9779C29.6898 43.4366 29.6898 45.8269 31.1485 47.3032L33.609 49.7813L36.3508 52.523C37.7743 53.9641 40.0943 53.9641 41.5354 52.5406L44.2772 49.8164L53.838 40.3083C55.3144 38.8495 55.3144 36.4593 53.8556 34.983C52.3969 33.5067 50.0067 33.5067 48.5303 34.9654L41.4303 42.0133Z" fill="url(#paint1_linear_1272_80115)"/>
<defs>
<linearGradient id="paint0_linear_1272_80115" x1="3.01759" y1="0.709004" x2="85.1118" y2="3.88703" gradientUnits="userSpaceOnUse">
<stop stop-color="#025999"/>
<stop offset="1" stop-color="#0093FF"/>
</linearGradient>
<linearGradient id="paint1_linear_1272_80115" x1="30.8325" y1="33.8735" x2="55.073" y2="35.0823" gradientUnits="userSpaceOnUse">
<stop stop-color="#025999"/>
<stop offset="1" stop-color="#0093FF"/>
</linearGradient>
</defs>
</svg>
