<svg width="28" height="23" viewBox="0 0 28 23" fill="none" xmlns="http://www.w3.org/2000/svg">
<path d="M27.7087 2.95357C26.8229 3.33509 25.8918 3.60076 24.9382 3.74401C25.384 3.66752 26.04 2.86433 26.3011 2.53923C26.6978 2.04884 27.0002 1.48903 27.1928 0.888227C27.1928 0.843605 27.2374 0.77986 27.1928 0.747988C27.1703 0.735713 27.1451 0.729281 27.1195 0.729281C27.0939 0.729281 27.0688 0.735713 27.0463 0.747988C26.0108 1.30921 24.9088 1.73756 23.7663 2.02289C23.7265 2.03507 23.6841 2.03616 23.6437 2.02605C23.6034 2.01594 23.5665 1.99502 23.5371 1.96552C23.4481 1.85953 23.3524 1.75945 23.2505 1.66592C22.7845 1.24804 22.2558 0.906017 21.6837 0.65237C20.9115 0.335287 20.0774 0.197965 19.2445 0.250775C18.4362 0.301866 17.6471 0.518848 16.9262 0.888227C16.2163 1.27766 15.5924 1.80672 15.092 2.44361C14.5656 3.09913 14.1855 3.85988 13.9774 4.67469C13.8058 5.44974 13.7863 6.25078 13.9201 7.03326C13.9201 7.16712 13.9201 7.18625 13.8055 7.16712C9.26446 6.4978 5.53868 4.88505 2.49437 1.42369C2.36062 1.2707 2.29057 1.2707 2.18229 1.42369C0.857573 3.43803 1.50083 6.62529 3.15673 8.1998C3.37964 8.41016 3.60892 8.61414 3.85093 8.80538C3.09171 8.75143 2.35104 8.5455 1.67279 8.1998C1.54541 8.11693 1.47535 8.16155 1.46898 8.31454C1.45093 8.52664 1.45093 8.73989 1.46898 8.95199C1.60187 9.96847 2.00211 10.9314 2.62875 11.7423C3.2554 12.5532 4.08597 13.1829 5.03554 13.5671C5.26702 13.6664 5.50822 13.7412 5.75522 13.7902C5.05237 13.9287 4.33151 13.9503 3.62166 13.854C3.4688 13.8221 3.41148 13.905 3.4688 14.0516C4.40502 16.6014 6.43669 17.3791 7.927 17.8126C8.1308 17.8444 8.33461 17.8444 8.56389 17.8954C8.56389 17.8954 8.56389 17.8954 8.52567 17.9337C8.08622 18.7369 6.30931 19.2787 5.4941 19.5592C4.00613 20.0941 2.41967 20.2986 0.844835 20.1584C0.59645 20.1201 0.53913 20.1265 0.475442 20.1584C0.411753 20.1903 0.475442 20.2604 0.545499 20.3241C0.863942 20.5345 1.18238 20.7193 1.51356 20.8978C2.49949 21.4361 3.54182 21.8636 4.62157 22.1727C10.2134 23.7154 16.5058 22.5807 20.7029 18.4054C24.002 15.1289 25.1611 10.6094 25.1611 6.08346C25.1611 5.91135 25.3713 5.80935 25.4923 5.72011C26.3269 5.0692 27.0628 4.3005 27.6768 3.43803C27.7832 3.30947 27.8377 3.14578 27.8297 2.97907C27.8297 2.88345 27.8297 2.90257 27.7087 2.95357Z" fill="#33CCFF"/>
</svg>
