<svg width="15" height="15" viewBox="0 0 15 15" fill="none" xmlns="http://www.w3.org/2000/svg">
<path d="M13.7224 3.19703C13.7225 3.09774 13.6962 3.00021 13.6464 2.91436C13.5965 2.82852 13.5247 2.75743 13.4384 2.70833C13.3521 2.65924 13.2543 2.6339 13.155 2.63488C13.0558 2.63587 12.9585 2.66315 12.8732 2.71395C12.5442 2.90979 12.1899 3.05976 11.8203 3.15972C11.2925 2.70677 10.6192 2.45891 9.9237 2.46145C9.16065 2.46232 8.42781 2.75971 7.87992 3.2908C7.33203 3.82189 7.01198 4.54512 6.98735 5.30778C5.48308 5.06789 4.11972 4.28275 3.15725 3.10206C3.09926 3.0317 3.0252 2.97632 2.94132 2.94058C2.85743 2.90485 2.76618 2.88981 2.67527 2.89674C2.58441 2.90422 2.49674 2.93373 2.41983 2.9827C2.34293 3.03167 2.27912 3.09863 2.23391 3.17781C2.00205 3.58243 1.86888 4.03604 1.84522 4.50179C1.82157 4.96754 1.90809 5.43231 2.09777 5.85835L2.09667 5.85944C2.01142 5.91195 1.94107 5.98545 1.89234 6.07291C1.84361 6.16037 1.81814 6.25888 1.81835 6.359C1.81732 6.44159 1.82227 6.52415 1.83317 6.60602C1.89059 7.31333 2.20406 7.9754 2.71479 8.46808C2.68015 8.53408 2.659 8.60634 2.65259 8.68061C2.64618 8.75488 2.65464 8.82968 2.67746 8.90065C2.90013 9.5944 3.37366 10.1801 4.00539 10.5431C3.36357 10.7913 2.67057 10.8778 1.98743 10.7951C1.86099 10.7792 1.73291 10.8068 1.62421 10.8733C1.5155 10.9398 1.43262 11.0413 1.38916 11.161C1.3457 11.2808 1.34424 11.4118 1.38503 11.5326C1.42581 11.6533 1.50641 11.7566 1.61361 11.8255C2.78851 12.5822 4.1565 12.9845 5.55401 12.9843C7.1388 13.0022 8.68505 12.4957 9.95224 11.5438C11.2194 10.592 12.1365 9.24797 12.5608 7.72093C12.7593 7.05573 12.8606 6.36534 12.8617 5.67116C12.8617 5.63438 12.8617 5.59651 12.8611 5.55863C13.1546 5.24211 13.382 4.87019 13.5299 4.46467C13.6778 4.05915 13.7432 3.62818 13.7224 3.19703V3.19703ZM11.8637 5.00254C11.7708 5.11235 11.7238 5.2537 11.7325 5.39724C11.738 5.48999 11.7374 5.5833 11.7374 5.67116C11.7363 6.25777 11.6503 6.84112 11.4821 7.40312C11.1356 8.70242 10.363 9.84784 9.2882 10.6559C8.21337 11.464 6.89844 11.888 5.55401 11.8601C5.07107 11.8602 4.5898 11.8035 4.12014 11.691C4.71904 11.498 5.27902 11.2004 5.77414 10.8121C5.86533 10.7403 5.93207 10.6421 5.9652 10.5308C5.99833 10.4196 5.99622 10.3008 5.95918 10.1908C5.92213 10.0808 5.85195 9.985 5.75827 9.91647C5.6646 9.84795 5.55201 9.81009 5.43596 9.80809C4.96874 9.80082 4.52257 9.61248 4.19148 9.28274C4.27547 9.26682 4.35892 9.24706 4.44181 9.22345C4.56323 9.18889 4.66949 9.11446 4.74348 9.01217C4.81747 8.90987 4.85487 8.78565 4.84967 8.65951C4.84447 8.53336 4.79698 8.41264 4.71482 8.31678C4.63267 8.22091 4.52065 8.15549 4.39679 8.13103C4.12559 8.07747 3.87038 7.96209 3.65102 7.79386C3.43166 7.62562 3.25405 7.40907 3.132 7.16103C3.23359 7.17489 3.33583 7.1835 3.43832 7.18683C3.56006 7.18867 3.67924 7.15174 3.77862 7.08137C3.87799 7.01101 3.95241 6.91087 3.99111 6.79542C4.0282 6.67893 4.02629 6.55352 3.98568 6.43821C3.94506 6.3229 3.86795 6.22397 3.76604 6.15644C3.51879 5.99172 3.31625 5.76824 3.17657 5.50603C3.03689 5.24382 2.96442 4.95105 2.96567 4.65396C2.96567 4.61663 2.96676 4.5793 2.96896 4.54252C4.22884 5.71751 5.86298 6.41017 7.58348 6.49844C7.67033 6.50187 7.75681 6.48551 7.83641 6.45061C7.91601 6.41571 7.98664 6.36317 8.04296 6.29698C8.09871 6.23014 8.13819 6.15128 8.15828 6.06659C8.17838 5.98191 8.17854 5.89372 8.15876 5.80896C8.12661 5.67481 8.11021 5.53738 8.1099 5.39944C8.11041 4.91855 8.30167 4.45751 8.64171 4.11748C8.98174 3.77745 9.44278 3.58619 9.92366 3.58569C10.1711 3.58502 10.4159 3.63566 10.6428 3.7344C10.8697 3.83313 11.0736 3.97783 11.2417 4.15935C11.3065 4.2291 11.3881 4.2811 11.4787 4.31041C11.5693 4.33972 11.6659 4.34536 11.7594 4.3268C11.9903 4.28186 12.2179 4.22134 12.4406 4.14565C12.2887 4.45649 12.0945 4.74485 11.8637 5.00254V5.00254Z" fill="#004C84"/>
</svg>
